<?xml version="1.0" encoding="utf-8"?>
<!-- Generator: Adobe Illustrator 19.0.0, SVG Export Plug-In . SVG Version: 6.00 Build 0)  -->
<svg version="1.1" id="layer" xmlns="http://www.w3.org/2000/svg" xmlns:xlink="http://www.w3.org/1999/xlink" x="0px" y="0px"
	 viewBox="-153 -46 652 652" style="enable-background:new -153 -46 652 652;" xml:space="preserve">
<style type="text/css">
	.st0{fill:#00234F;}
</style>
<path class="st0" d="M-68.1,243.4c0.2,0,0.5,0.2,0.6,0.4C-52.1,275.7-33.9,327-28.1,370c0,0.2,0,0.4-0.2,0.6
	c-0.1,0.2-0.3,0.2-0.5,0.2h-11.6c-0.3,0-0.6-0.2-0.6-0.5C-50,333.2-62.3,301.2-81,266.5c-0.1-0.2-0.1-0.5,0-0.7
	c3.8-7.5,7.9-15,12.3-22.1C-68.6,243.5-68.3,243.4-68.1,243.4 M-46.5,216.9c-0.2,0-0.5,0.1-0.6,0.3c-5.3,6.9-10.3,14.2-15.1,21.6
	c-0.1,0.2-0.1,0.5,0,0.7c15.6,31.5,32.6,71.6,40.7,130.8c0,0.3,0.3,0.6,0.7,0.6h11.4c0.2,0,0.4-0.1,0.5-0.2c0.1-0.1,0.2-0.3,0.2-0.5
	C-12.4,299.9-36,239.8-46,217.3C-46,217-46.3,216.9-46.5,216.9 M-85.9,271.3c-0.1-0.2-0.3-0.4-0.6-0.4c-0.2,0-0.5,0.2-0.6,0.4
	c-1.4,3-2.8,6-4.2,9.1c-1.9,4.3-3.7,8.7-5.4,13c-0.1,0.2-0.1,0.5,0,0.7c14.1,24.2,26,49.9,35.2,76.3c0.1,0.3,0.3,0.5,0.6,0.5h12.4
	c0.2,0,0.4-0.1,0.5-0.3c0.1-0.2,0.2-0.4,0.1-0.6C-56.2,336.8-69.4,302.7-85.9,271.3 M7.5,302.4L7.5,302.4
	C3,265.6-6.3,229.6-21,192.4c-0.1-0.2-0.3-0.4-0.5-0.4c-0.2,0-0.4,0-0.6,0.2c-6,6.1-13.4,13.9-18.1,20.5c-0.2,0.2-0.2,0.5-0.1,0.8
	C-39.9,214.2-4.6,286-2,370.2c0,0.4,0.3,0.7,0.7,0.7H10c0.4,0,0.7-0.3,0.7-0.7C11.1,349.3,9.7,320.8,7.5,302.4 M-101.2,299.4
	c-0.1-0.2-0.4-0.4-0.6-0.3c-0.3,0-0.5,0.2-0.6,0.4c-2.6,7.2-5,14.5-7,21.8c-0.1,0.2,0,0.4,0.1,0.6c9.7,15.5,18.6,31.9,26.4,48.6
	c0.1,0.2,0.3,0.4,0.6,0.4h12.8c0.2,0,0.4-0.1,0.6-0.3c0.1-0.2,0.2-0.4,0.1-0.7C-77.6,345.5-88.5,321.8-101.2,299.4 M-117.2,362.1
	c-1.7-2.5-3.3-4.9-4.9-7.3c-0.2-0.2-0.4-0.3-0.7-0.3c-0.3,0.1-0.5,0.3-0.5,0.6c-0.3,2.3-1.5,11-1.9,15.1c0,0.2,0,0.4,0.2,0.5
	c0.1,0.1,0.3,0.2,0.5,0.2h11.9c0.2,0,0.5-0.1,0.6-0.4c0.1-0.2,0.1-0.5,0-0.7C-113.8,367.1-115.5,364.6-117.2,362.1 M-113.5,327.6
	c-0.1-0.2-0.4-0.4-0.7-0.3c-0.3,0-0.5,0.2-0.5,0.5c-1.8,7.2-3.3,14.3-4.5,21.4c0,0.2,0,0.4,0.1,0.5c4.7,6.9,9.2,13.8,13.6,20.8
	c0.1,0.2,0.3,0.3,0.6,0.3h13.6c0.2,0,0.4-0.1,0.6-0.3c0.1-0.2,0.1-0.5,0-0.7C-97.5,355.4-105.2,341.2-113.5,327.6"/>
<path class="st0" d="M66.6,303.5c-10.1,0-17.7-6.9-17.7-17.1v-32.8h7.5V286c0,6.6,4,10.7,10.2,10.7c6.2,0,10.3-4.1,10.3-10.7v-32.5
	h7.5v32.8C84.4,296.6,76.7,303.5,66.6,303.5 M132.2,303.1v-49.5h-7.5v34.8l-22.9-34.8h-6.9v49.5h7.5v-34.9l22.9,34.9H132.2z
	 M143.2,303.1h7.5v-49.5h-7.5V303.1z M195.7,253.6h-7.9l-11.4,36l-11.4-36h-7.8l16.3,49.5h5.8L195.7,253.6z M233.9,303.1v-6.7h-24.1
	v-14.9h20.6v-6.7h-20.6v-14.5h24.1v-6.7h-31.6v49.5H233.9z M278.3,303.1l-11.4-21.9c5.6-1.5,9.9-6.1,9.9-13.1
	c0-8.4-6-14.5-15.4-14.5h-19.2v49.5h7.5v-20.9h9.4l10.4,20.9H278.3z M260.8,260.3c5,0,8.4,2.9,8.4,7.8c0,4.9-3.4,7.7-8.4,7.7h-11.1
	v-15.5H260.8 M300.3,303.5c10.4,0,17.8-5.4,17.8-14.5c0-4.2-1.3-7.8-4-10.2c-2.1-1.9-4.7-3-9.2-3.7l-5.6-0.8
	c-2.3-0.3-4.3-1.2-5.6-2.3c-1.3-1.2-1.9-2.8-1.9-4.6c0-4.4,3.2-7.7,9-7.7c4.2,0,7.7,0.9,10.8,3.8l4.8-4.7c-4.2-4-8.8-5.6-15.4-5.6
	c-10.3,0-16.6,5.9-16.6,14.5c0,4,1.2,7.2,3.6,9.5c2.2,2,5.4,3.4,9.4,4l5.8,0.8c2.9,0.4,4.2,0.9,5.4,2.1c1.3,1.2,1.9,3,1.9,5.1
	c0,4.8-3.8,7.6-10.2,7.6c-5.1,0-9-1.1-12.7-4.7l-5,4.9C287.5,301.8,292.8,303.5,300.3,303.5 M326.2,303.1h7.5v-49.5h-7.5V303.1z
	 M375.8,260.3v-6.7h-34.8v6.7h13.6v42.8h7.5v-42.8H375.8z M383.3,303.1h7.5v-49.5h-7.5V303.1z M433.3,303.1v-6.7h-24.1v-14.9h20.6
	v-6.7h-20.6v-14.5h24.1v-6.7h-31.6v49.5H433.3z M457,303.5c10.4,0,17.8-5.4,17.8-14.5c0-4.2-1.3-7.8-4-10.2c-2.1-1.9-4.7-3-9.2-3.7
	l-5.6-0.8c-2.3-0.3-4.3-1.2-5.6-2.3c-1.3-1.2-1.9-2.8-1.9-4.6c0-4.4,3.2-7.7,9-7.7c4.2,0,7.7,0.9,10.8,3.8l4.8-4.7
	c-4.2-4-8.8-5.6-15.4-5.6c-10.3,0-16.6,5.9-16.6,14.5c0,4,1.2,7.2,3.6,9.5c2.2,2,5.4,3.4,9.4,4l5.8,0.8c2.9,0.4,4.2,0.9,5.4,2.1
	c1.3,1.2,1.9,3,1.9,5.1c0,4.8-3.8,7.6-10.2,7.6c-5.1,0-9-1.1-12.7-4.7l-5,4.9C444.2,301.8,449.5,303.5,457,303.5 M65.8,321L84,370.5
	h-4l-4.3-12H52.5l-4.3,12h-4L62.4,321H65.8z M53.7,355.2h20.7L64.1,326L53.7,355.2z M107,371c9.9,0,17-6.8,17-16.5V321h-3.8v33
	c0,8.2-5.3,13.6-13.2,13.6c-7.9,0-13.2-5.4-13.2-13.6v-33H90v33.5C90,364.2,97.1,371,107,371 M149.4,371c10.3,0,16.7-5.4,16.7-13.7
	c0-4-1.6-7.4-4.3-9.6c-2.1-1.7-4.2-2.6-8.8-3.3l-5.4-0.8c-2.8-0.4-5.6-1.6-7.4-3.1c-1.7-1.5-2.6-3.6-2.6-6.5
	c0-6.3,4.3-10.2,11.5-10.2c5.9,0,9,1.9,12,4.6l2.4-2.4c-4.2-3.7-8.1-5.4-14.3-5.4c-9.5,0-15.4,5.3-15.4,13.6c0,3.8,1.2,6.9,3.9,9.1
	c2.1,1.8,5.1,3.1,8.8,3.6l5.8,0.9c4,0.6,5.4,1.1,7.2,2.6c1.8,1.6,2.7,4,2.7,7c0,6.5-4.9,10.2-12.7,10.2c-6,0-9.6-1.4-14.1-5.8
	l-2.6,2.6C137.4,369,142,371,149.4,371 M172,321v3.3h14.7v46.2h3.8v-46.2h14.8V321H172z M248,370.6l-12-22.9c7-1.2,11.4-6,11.4-13.4
	c0-8.6-6.1-13.3-14.2-13.3h-18.8v49.5h3.8v-22.8h13.6l11.8,22.8H248z M232.8,324.4c6.3,0,10.9,3.2,10.9,10c0,6.8-4.6,10-10.9,10
	h-14.6v-20H232.8 M276.6,321l18.2,49.5h-4l-4.3-12h-23.1l-4.3,12h-4l18.2-49.5H276.6z M264.6,355.2h20.7L275,326L264.6,355.2z
	 M303.5,321v49.5h30v-3.3h-26.3V321H303.5z M342.6,370.5h3.8V321h-3.8V370.5z M376.4,321l18.2,49.5h-4l-4.3-12h-23.1l-4.3,12h-4
	l18.2-49.5H376.4z M364.4,355.2h20.7L374.8,326L364.4,355.2z"/>
</svg>
