<?xml version="1.0" encoding="utf-8"?>
<!-- Generator: Adobe Illustrator 19.0.0, SVG Export Plug-In . SVG Version: 6.00 Build 0)  -->
<svg version="1.1" id="layer" xmlns="http://www.w3.org/2000/svg" xmlns:xlink="http://www.w3.org/1999/xlink" x="0px" y="0px"
	 viewBox="-153 -46 652 652" style="enable-background:new -153 -46 652 652;" xml:space="preserve">
<style type="text/css">
	.st0{fill:#F1C400;}
</style>
<path class="st0" d="M-24,220.9c-2.3-7.8,0.6-21.4,4.6-29.2l-1.7-1.7l-14.3,14.3c0.8,1.4,0.6,3.3-0.6,4.5c-1.5,1.5-3.9,1.5-5.3,0
	c-1.5-1.5-1.5-3.9,0-5.3c1.2-1.2,3.1-1.4,4.5-0.6l14.3-14.3l-1.7-1.7c-7.8,3.9-21.4,6.8-29.2,4.6L-71.3,212l24.7,28.5L-24,220.9z"/>
<path class="st0" d="M-120.3,268.5c-2.3,2.6-3.3,6.1-2.8,9.6c0.9,6.4,6,11.5,12.4,12.4c3.4,0.5,6.9-0.5,9.6-2.8l26.4-22.9l-24.2-21
	L-120.3,268.5z"/>
<path class="st0" d="M-92.4,191.4c-7.8,2.3-21.4-0.6-29.2-4.6l-1.7,1.7l14.3,14.3c1.4-0.8,3.3-0.6,4.5,0.6c1.5,1.5,1.5,3.9,0,5.3
	c-1.5,1.5-3.9,1.5-5.3,0c-1.2-1.2-1.4-3.1-0.6-4.5l-14.3-14.3l-1.7,1.7c3.9,7.8,6.8,21.4,4.6,29.2l77.1,66.8
	c2.6,2.3,6.1,3.3,9.6,2.8c6.4-0.9,11.5-6,12.4-12.4c0.5-3.4-0.5-6.9-2.8-9.6L-92.4,191.4z"/>
<path d="M426.1,200.6c2.8,3.7,7-1.8,3.9-6.2c-2.3-3.1-7-3.7-9-3.5c-1,0.1-0.5,0.3,0,0.9C424.1,195.9,424.3,198.2,426.1,200.6"/>
<path d="M439.1,199.4c3,3.9,7.3-1.3,4.1-6c-2.3-3.4-7.2-4.4-9.4-4.3c-1,0-0.6,0.3-0.1,0.9C437.4,194.7,437.2,196.9,439.1,199.4"/>
<path d="M473,227.5c-1.8-1.9-4.3-3.7-7.2-4.9c-0.3-0.1-3.6,3.3-5.1,5.7l-15.9,0.1c0-0.6,0-1.1,0-1.5c0-2.4,1.2-3,2-3.5
	c0.8-0.5,1-1.3-0.2-1.9c-0.2-0.1-0.5-0.2-0.8-0.3c5.2-3.3,7.4-4.2,10.4-4.1c2.6,0.1,3-1.7,1.5-3.5c0,0-0.1-0.1-0.1-0.1
	c3.5-2.7,7.4-4.8,10.5-5.2c2.6-0.3,3-1.9,1.5-3.9c-1.3-1.7-3.6-3.5-6.7-4.9c-0.1,0-2,2-3,3.4l-8.9,0.1c3.3-3.4,6.2-7.3,9.1-7.8
	c2.5-0.4,2.5-2.2,1.1-3.3c-2-1.4-4.6-2.4-7.9-3.9c-0.5,1.6-2.1,6.9-5.4,15l-25.9,0.2c-0.2-1.7-0.5-3.2-0.7-4c-0.2-1-0.6-1.2-0.9-0.2
	c-1.5,6.6-5.4,7.2-7.6,10.3c-2.4,3.4,0.5,8.4,5.1,5.2c3.4-2.3,4.2-6.3,4.1-9.7l38.5-0.3c-0.9,2.1-2.2,4.4-4.2,7.8
	c-1.3-1.1-3-2.2-5.3-3.1c-0.1,0-2,1.8-3,3.1l-15.6,0.1c0,0-3.7-0.1-9.1-1.2c-0.2,0.8,0.9,3.3,1.5,3.5c3.3-0.7,7.7-0.8,7.7-0.8
	l16.2-0.1c-1.1,1.9-3.2,4.4-5.1,6.8c-2.2-0.5-4.7-0.8-6.1-0.9c0.1,1.1,0.6,5.4,0.7,8.6c0,0.1,0,0.1,0,0.2l-20.2,0.2
	c0,0-3.7-0.1-9.1-1.2c-0.2,0.8,0.9,3.3,1.5,3.5c3.3-0.7,7.7-0.8,7.7-0.8l20.2-0.2c0.1,3.6,0,8.1-0.6,11.2c-0.3,1.9-1.3,2.5-6.2,2
	c-2.5-0.2-4.9-0.6-6.8-0.9c-0.6-0.1-0.8,0.3-0.1,0.5c9.8,2.9,3.1,8.2,11.6,7.4c7.1-0.7,9.1-3.8,9.3-8.7c0-1.6-0.3-7.6-0.5-11.6
	l22.9-0.2l4.7,0C473.6,229.6,474.1,228.7,473,227.5"/>
<path d="M59.7,217.5c-0.5,1.2-1.1,2.7-1.8,4.5c-2.1-0.9-4.4-1.2-5.6-1.1c-1.1,0.1-0.4,0.4,0.2,0.9c3,2.4,3.7,3.7,5.8,7.4
	c2.4,4.1,7.4,0,4-4.2c-0.7-0.9-1.7-1.6-2.8-2.2c2.9-2.1,4-2.5,6.8-2.8c2.2-0.3,2.8-1.5,1.6-2.6c-1.5-1.4-3.2-2.5-6.1-3.8
	c-0.1,0-1.5,1.2-2.4,2.5l-37.7,0.3c0.1-1.4,0.3-2.8,0.4-4.2l33.3-0.3c-0.2,2.1,0.9,2.9,4.5,1.7c1.3-0.4,1.7-1.4,1.5-2.3
	c-0.2-1.8-0.4-2.9-0.4-4.7c0-0.9,1.2-1.2,1.7-1.5c0.9-0.5,0.7-1.2-0.1-2c-1.2-1.3-2.9-2.8-4.9-3.5c-0.3-0.1-2.2,1.9-3.3,3.6
	l-6.2,0.1c0-0.2,0-0.3,0-0.5c0.1-2.2,0.5-2.1,1-2.4c0.7-0.4,1.3-0.7,0.6-1.4c-0.4-0.3-1.1-0.7-2.1-1.1l18.2-0.2c1-0.1,1.5-1,0.5-2
	c-1.6-1.7-3.8-3.4-6.5-4.5c-0.3-0.1-3.2,2.7-4.6,5l-12.4,0.1c-0.1-0.9,0-2,0.2-2.6c0.3-1.4,4.1-1.6,2.3-3.3
	c-1.8-1.8-7.4-2.4-8.8-2.2c0.4,1.8,0.9,5.8,0.6,8.2l-12.5,0.1c-2.3-2-6.3-3.8-8.9-4c1.5,22.1,0.9,38.7-8.8,54.5
	c-1,1.7-0.1,1.2,0.2,0.8c9.4-9,12.9-19,14.3-29.9L59.7,217.5z M29.7,197.8c0.2,1.7,0.2,3.6,0.3,5.4l-7.6,0.1c0-1.1,0-2.3,0-3.4
	c0-0.6,0.3-1.3,2.2-2.1L29.7,197.8z M55.5,204.6c0.1,2,0.1,3.7-0.1,5.5l-7.2,0.1c-0.1-1.7-0.1-3.6-0.1-5.5L55.5,204.6z M42.7,210.3
	l-7.2,0.1c-0.1-1.7-0.1-3.6-0.1-5.5l7.5-0.1C42.8,206.6,42.7,208.4,42.7,210.3 M42.5,197.7c0.2,1.7,0.2,3.6,0.3,5.4l-7.5,0.1
	c0-0.2,0-0.4,0-0.6c0.1-2.2,0.5-2.1,1-2.4c0.7-0.4,1.3-0.7,0.5-1.4c-0.3-0.3-0.9-0.6-1.8-0.9L42.5,197.7z M22.3,204.9l7.6-0.1
	c0,1.8-0.1,3.7-0.1,5.5l-7.7,0.1C22.2,208.6,22.3,206.8,22.3,204.9"/>
<path d="M28.6,221.4c-2.1,4.3-5,4.1-7.1,5.9c-2.3,2-1,6,2.9,4.6c3.8-1.3,4.8-8.3,4.8-10.2C29.2,220.9,28.9,220.7,28.6,221.4"/>
<path d="M38.4,218.6c-0.8,0.1-0.4,0.5,0.1,0.8c2.3,1.6,2.2,2.4,4,4.6c2.1,2.6,6-0.7,3.4-3.5C44,218.5,40.1,218.4,38.4,218.6"/>
<path d="M70.4,244c-10.7,0.4-18.1-0.4-23.4-1.9c0.3-0.2,0.6-0.4,0.9-0.6c3.2-2.2,4.5-4,6.4-4.4c0.8-0.2,3.4-0.5,1.5-2.2
	c-1.8-1.6-4-2.7-5.9-3.5c-0.2-0.1-1,0.6-2.6,2.2l-9.3,0.1c0.7-0.5,1.4-0.9,2-1c1.3-0.1,1.9-0.7,0.4-1.9c0,0-0.1-0.1-0.1-0.1
	c2.8,0,5.7-0.3,7.6-0.5c2.9-0.4,5.3-1.4,5.3-3.5c0-1.4-1.3-1.8-1.9-2.7c-0.7-0.9-1-2.2-1.2-2.9c-0.1-0.7-0.4-0.7-0.5,0
	c-0.2,1-0.1,4.6-3.1,5.2c-2.1,0.5-4.6,0.6-7.5,0.4c-3.1-0.2-3.1-1.8-3.1-2.9c0-1.6,0.3-2,1-2.2c1-0.3,1.7-0.9,0.2-1.7
	c-2-1-4.2-1.3-6.2-1.4c0,0.3,0.3,1.5,0.3,6.2c0,1.8-0.5,4,2.4,5.2c0.1,0,0.2,0.1,0.3,0.1c-2.4,3.6-6.2,8.3-19.1,15
	c-1.3,0.7-0.8,0.8,0,0.6c7.6-1.6,13.5-4.6,19.3-9c1.3,2,2.8,3.6,4.3,5c-7.9,4.3-16.4,6.1-25.8,7.8c-1.2,0.2-1.1,0.6,0.2,0.7
	c10.3,0.2,21.3-1.6,29.6-5.5c4.7,2.8,10.2,4,16.4,5.1c2.9,0.5,3.2,0.3,4.7-1.3c1.8-1.8,4.6-3.3,6.8-4.2
	C70.8,244.2,70.9,244,70.4,244 M35.3,235.8c0.2-0.2,0.5-0.4,0.7-0.5l11.6-0.1c-2.1,1.9-4.2,3.5-6.3,4.9
	C38.6,238.7,36.8,237.3,35.3,235.8"/>
<path d="M106.3,234.9c-2.6,5.4-6.2,5.2-8.8,7.5c-2.8,2.5-1.3,7.4,3.4,5.6c5.8-2.2,6-10.3,6-12.7C107,234.3,106.7,234,106.3,234.9"/>
<path d="M135.3,240.9c-0.9-1.1-1.2-3.3-1.4-4.2c-0.2-1-0.4-0.9-0.5-0.1c-0.2,1.3-0.3,6.5-4.1,7.4c-2.7,0.6-5.8,0.8-9.4,0.5
	c-3.9-0.2-3.8-2.3-3.7-3.7c0-2.1,0.1-3.3,1.2-3.7c1.2-0.5,1.8-1.4,0.3-2.2c-2.6-1.3-4.9-1.7-7.7-1.7c0,0.4,0.2,3.6-0.1,8.7
	c-0.1,2.4-0.1,5,3.2,6.4c4.3,1.8,13.3,1.5,18.1,0.5c3.8-0.8,6.4-1.7,6.6-4.4C137.8,242.8,136.2,242,135.3,240.9"/>
<path d="M119.1,231.9c-1,0.1-0.4,0.6,0.1,1c2.6,2.1,2.6,3.2,4.7,6.1c2.4,3.4,7-0.9,3.9-4.6C125.7,231.8,121.2,231.7,119.1,231.9"/>
<path d="M148.3,240c-2.9-3.8-8.4-4.9-11.8-5.1c-1.3-0.1-0.5,0.5,0.2,1.1c3.5,2.9,4.4,4.6,6.8,9.2C146.4,250.4,152.3,245.3,148.3,240
	"/>
<path d="M111.6,227.8c0-3.6-0.1-7-0.1-9.6c2.4-1.5,4.9-3.7,7.2-6.2c0,4.5-0.2,10.8-0.7,16c-0.2,2-0.1,3.3,2.5,3
	c1.8-0.2,2.6-0.9,2.9-2l24.9-0.2c0.9-0.1,1.2-0.8,0.4-1.7c-1.3-1.4-3.2-2.9-5.3-3.8c-0.2-0.1-2.4,2.1-3.6,4l-5.6,0.1
	c-0.1-1.8-0.1-3.7-0.2-5.6l9.4-0.1v0l0,0c0.7-0.1,1-0.7,0.3-1.5c-1.1-1.2-2.6-2.5-4.4-3.2c-0.2-0.1-1.8,1.6-2.8,3.2l-2.7,0
	c-0.1-1.8-0.1-3.5-0.1-4.8l9.6-0.1v0l0,0c0.7-0.1,1-0.7,0.3-1.5c-1.1-1.2-2.6-2.5-4.4-3.2c-0.2-0.1-1.8,1.6-2.8,3.2l-2.9,0
	c0-0.4,0-0.7,0-1c0-1.6,0.7-1.8,1.5-2.2c0.8-0.4,1-1,0.1-1.7l11.2-0.1h0c0.9-0.1,1.2-0.8,0.4-1.7c-1.3-1.4-3.2-2.9-5.3-3.8
	c-0.2-0.1-2.4,2.1-3.6,4l-6.7,0.1c0.6-0.7,1.2-1.3,2.1-2.2c1.4-1.4,2.1-2.5,4-2.8c0.8-0.1,1.1-1,0.1-1.6c-1.4-0.9-3.4-1.9-5.5-2.3
	c-0.2,0,0.1,1.8-2.6,9l-4.2,0c-0.1-0.1-0.2-0.2-0.4-0.3c-0.5-0.3-1-0.6-1.5-0.8c0.6-0.8,1.1-1.5,1.7-2.3c0.8-1.1,1.4-1.4,2.4-1.7
	c0.8-0.2,1.1-1,0.1-1.6c-1.4-0.9-3.4-1.9-5.5-2.3c-0.2,0,0,1.5-2.2,5.9c-1.1,2.2-4.3,8.5-8.6,12.9c0-1.2,0-2.2,0-2.9
	c0-2.4,1-2.7,1.9-3.3c0.9-0.5,1.4-1.1,0.1-1.9c-0.7-0.4-1.2-0.7-1.9-1c1.1-1.2,2.2-2.4,3.2-3.6c0.9-1.1,1.6-1.3,2.6-1.5
	c0.8-0.2,1.2-0.9,0.3-1.7c-1.3-1.1-3.2-2.2-5.2-2.9c-0.2-0.1-0.2,1.5-2.8,5.9c-1,1.7-3.4,5.6-6.5,9.2c0.3-4.4,0.4-8.8,0.5-13.5
	c0-0.6,0.3-1.3,2.2-2.1l41.2-0.4c1-0.1,1.5-0.9,0.5-2c-1.6-1.7-3.8-3.4-6.5-4.5c-0.3-0.1-3.2,2.7-4.6,5l-12.4,0.1
	c-0.1-0.9,0-2,0.2-2.6c0.3-1.4,4.1-1.6,2.3-3.3c-1.8-1.8-7.4-2.4-8.8-2.2c0.4,1.8,0.9,5.8,0.6,8.2l-12.5,0.1c-2.3-2-6.3-3.8-8.9-4
	c1.5,22.1,0.9,38.7-8.8,54.5c-1,1.7-0.1,1.2,0.2,0.8c10-9.6,13.3-20.2,14.5-31.8c1.3-0.9,2.6-2,3.9-3.1c-0.1,4.4-0.5,10.8-1.2,16.3
	c-0.2,2-0.1,3.3,2.5,3C110.8,231.8,111.6,230.4,111.6,227.8 M129.3,227.4l-5.8,0c-0.1-0.9-0.1-3.1-0.1-5.6l6.1-0.1
	C129.5,223.9,129.4,225.8,129.3,227.4 M129.5,220.2l-6.2,0.1c0-1.7,0-3.4-0.1-4.8l6.2-0.1C129.5,217,129.5,218.6,129.5,220.2
	 M129.4,213.8l-6.2,0.1c0-0.6,0-1.2,0-1.5c0-2.2,1-2.9,1.8-3.4l4.2,0C129.3,210.2,129.4,211.9,129.4,213.8"/>
<path d="M210.5,217.2c-0.9,0.1-0.4,0.5,0.1,0.8c2.4,1.7,2.4,2.6,4.3,4.9c2.2,2.7,6.4-0.7,3.6-3.7C216.5,217.1,212.4,217,210.5,217.2
	"/>
<path d="M187.3,189.3c2.7,2.1,2.7,3.2,4.8,6.2c2.5,3.4,7.3-0.9,4.1-4.6c-2.3-2.7-7-2.7-9.1-2.6C186.2,188.4,186.8,188.9,187.3,189.3
	"/>
<path d="M175.4,214.8c3.3-0.7,7.7-0.8,7.7-0.8l44.8-0.4v0l0,0c1-0.1,1.5-1,0.5-2c-1.6-1.7-3.8-3.4-6.5-4.5c-0.3-0.1-3.2,2.7-4.6,5
	l-14,0.1c-0.1-1.7-0.1-3.8-0.1-5.9l15.7-0.1c0.9-0.1,1.2-0.8,0.4-1.7c-1.3-1.4-3.1-2.9-5.3-3.8c-0.2-0.1-2.4,2.1-3.6,4l-7.2,0.1
	v-0.6c0.1-2.1,0.5-2,1-2.3c0.7-0.4,1.3-0.7,0.6-1.4c-0.5-0.4-1.4-0.9-3-1.3l21.9-0.2c1-0.1,1.5-1,0.5-2c-1.6-1.7-3.8-3.4-6.5-4.5
	c-0.3-0.1-3.2,2.7-4.6,5l-8.6,0.1c4.3-3.3,5.7-4.6,7.4-4.6c2.2,0,2.5-1.1,1.3-2.2c-1.5-1.4-3.7-2.7-6.5-4c-0.1,0-3.2,7.3-4.6,10.7
	l-16.1,0.1c0,0-3.7-0.1-9.1-1.2c-0.2,0.8,0.9,3.3,1.5,3.5c3.3-0.7,7.7-0.8,7.7-0.8l11.6-0.1c0.2,1.8,0.3,3.7,0.3,5.7l-8.6,0.1
	c0,0-3.7-0.1-9.1-1.2c-0.2,0.8,0.9,3.3,1.5,3.5c3.3-0.7,7.6-0.8,7.6-0.8l8.5-0.1c0,2-0.1,3.9-0.2,5.9l-14.7,0.1c0,0-3.7-0.1-9.1-1.2
	C173.8,212.1,174.8,214.5,175.4,214.8"/>
<path d="M228.8,243.3c0-2.4,0.8-7.5,0.8-8.3c0.1-0.8-0.1-0.9-0.5-0.1c-0.4,0.7-2.2,5.1-3.9,7.7c-1.7,2.5-4.7,0.7-6.3-0.2
	c-1.5-0.8-2.8-2-4-3.4c1-0.9,2-2,3-3.1c1.2-1.3,2.2-1.3,3.6-1.3c1.1,0.1,1.7-0.9,0.6-2c-1.1-1.1-3-2.7-5.4-4
	c-0.2-0.1-0.9,2.1-4.5,6.3c-1.3-2.4-2.3-4.9-2.9-7.2l19.6-0.2c1-0.1,1.5-1,0.5-2c-1.6-1.7-3.8-3.4-6.5-4.5c-0.3-0.1-3.2,2.7-4.6,5
	l-9.5,0.1c-0.3-1.3-0.6-2.5-0.7-3.4c-0.4-3.5,0-3.9,1-5.3c0.7-0.9,0.4-1.4-0.9-1.9c-1.5-0.5-4.6-1.1-6.7-1.1
	c0.6,4.6,1.3,8.5,2.1,11.8l-11,0.1c0-2.3,1.2-2.9,2-3.4c0.8-0.5,1-1.3-0.2-1.9c-0.1,0-0.2-0.1-0.3-0.1c0.6-0.2,1.3-0.3,1.9-0.5
	c1.3-0.3,2-0.1,3,0.3c0.8,0.3,1.5,0,1-1.2c-0.6-1.6-1.7-3.6-3.2-5.4c-0.1-0.2-0.9,1.1-5.2,3.1c-2.4,1.1-9.9,3.8-16.7,4.3
	c-1.2,0.1-0.9,0.4,0.1,0.6c3.6,0.7,8.1,0.6,12.6,0c0.1,1.2,0.1,2.6,0.1,4.3l-6.6,0.1c0,0-3.7-0.1-9.1-1.2c-0.2,0.8,0.9,3.3,1.5,3.5
	c3.3-0.8,7.7-0.8,7.7-0.8l6.5-0.1c0,1.7,0,3.6-0.1,5.4c-3.1,0.3-6,0.5-8.8,0.7c-4.8,0.2-6.8-0.4-6.8-0.2c0.4,2.5,1.3,4.5,2.6,6.1
	c0.7,0.9,1.2,1,1.7,0.4c0.5-0.6,0.7-0.7,2.5-1.2c2.8-0.7,5.8-1.4,8.7-2.2c-0.1,1.7-0.3,3.3-0.4,4.6c-0.3,2.3-2.1,2.3-4,2.1
	c-2.4-0.3-3.6-0.5-5.6-0.8c-0.6-0.1-0.7,0.2-0.2,0.4c7.9,3.5,3.9,7.2,8.3,6.7c5.5-0.6,7.2-3.4,7.2-7.5c0-1,0-3.8,0-6.9
	c4.2-1.2,7.8-2.6,10.2-4.2c0.8-0.6-0.1-0.3-0.4-0.3c-3.4,0.7-6.6,1.3-9.8,1.7c0-1.9,0-3.6-0.1-4.8l11.4-0.1
	c1.2,4.7,2.6,8.3,4.3,11.2c-3.1,2.9-7.9,6.5-15.2,9.3c-1.5,0.6-1.2,0.9,0,0.7c5.3-1,11.3-2.4,17.5-6.6c2,2.4,4.2,4.3,6.8,6
	c4.7,3.1,10.4,4.2,12.3,1C231.3,246.8,228.8,245.7,228.8,243.3"/>
<path d="M280.5,203.4c0.7-0.4,0.6-1-0.1-1.7c-1-1.1-2.4-2.4-4.2-3c-0.2-0.1-1.7,1.5-2.6,2.9l-8.2,0.1c-2.6-1.5-4.6-2.4-6.6-2.8
	c0,0.4,0.2,2,0.2,3.4c0,1.7-0.2,4.6-0.5,6.7c-0.2,1.6,0.1,2.6,2.4,2.3c1.8-0.2,2.6-0.8,2.8-2l10.3-0.1c-0.2,1.8,0.8,2.4,3.8,1.4
	c1.1-0.4,1.4-1.2,1.3-2c-0.2-1.6-0.3-2.5-0.3-4C279,203.9,280,203.6,280.5,203.4 M274.3,207.6l-10.4,0.1c0-1.2,0-2.7,0-3.4
	c0-0.4,0.3-0.9,1.1-1.1l9.4-0.1C274.4,204.7,274.4,206.2,274.3,207.6"/>
<path d="M257.1,226.2c0.5-0.5,0.6-0.6,2.3-0.8c2.4-0.3,4.9-0.7,7.4-1.1c-0.1,1.3-0.2,2.6-0.3,3.7c-0.3,1.9-1.8,1.8-3.4,1.7
	c-2.1-0.2-3.1-0.4-4.7-0.7c-0.5-0.1-0.6,0.2-0.2,0.3c6,2.3,3.9,5.7,7.6,5.3c4.7-0.5,5.5-2.6,5.5-5.9c0-1.5,0-3.4-0.1-5.2
	c5.2-0.9,10-2.1,13.1-3.6c1-0.5-0.1-0.4-0.4-0.3c-4.3,0.5-8.3,0.9-12,1.1c0.3-0.4,0.7-0.6,1.1-0.8c0.6-0.4,0.8-0.9,0.2-1.4
	c2.1-1.1,3.9-1.3,5.9-1.6c1.9-0.2,2.2-1.3,1.2-2.3c-1.3-1.2-3.1-2.4-5.5-3.4c-0.1,0-1.1,1-2.1,2.3l-8,0.1c0,0-3.7-0.1-9.1-1.2
	c-0.2,0.8,0.9,3.3,1.5,3.5c3.3-0.7,7.6-0.8,7.6-0.8l8.4-0.1c-0.4,0.7-1,1.6-1.8,2.7c-1.2-0.3-2.8-0.6-4.6-0.8
	c0.1,0.5,0.2,1.6,0.3,2.6c0,0.5,0,0.9,0.1,1.3c-2.6,0.1-5,0.1-7.2,0c-4.3-0.1-6-0.8-6-0.7c0.3,2.2,1,4,2,5.6
	C256.2,226.6,256.6,226.7,257.1,226.2"/>
<path d="M312,227.1c0-2.4,0-9.8,0-10.6c0-0.6-0.3-0.7-0.4,0.1c-0.2,1.1-1,7-2.4,9.3c-1.4,2.3-3.1,0.2-3.7-0.8
	c-2-3.6-2.2-9.8-1.9-17.5c0.1-2.8,0.6-3.1,2-3.7c0.9-0.4,0.9-1-0.1-2c-0.9-1-2.6-2.4-5-3.2c-0.1,0-1.4,1.1-2.7,2.8l-2.6,0
	c0.1-2.8,0.2-8,0.3-8.5c0.3-1.3,3.5-1.4,1.9-3c-1.6-1.6-6.7-2.2-8-2c0.3,1.6,0.6,9.6,0.5,13.4c-1.6-0.1-4.2-0.4-7.5-1.1
	c-0.2,0.8,0.9,3.3,1.5,3.5c2-0.5,4.4-0.7,6-0.7c-0.2,3.1-0.4,5.9-0.8,8.5c-2.2-0.6-4.5-1-6.4-1c-1.2,0-0.8,0.3,0.1,0.8
	c1.9,1.1,3.7,2.3,5.5,3.7c-1.9,7.4-6.1,13-16.3,18.5c-1.8,1-1.2,1.2,0.4,0.7c2.5-0.7,4.8-1.5,6.7-2.3c0.1,1.4,0.2,3.4,0.2,5.5
	l-10,0.1c0,0-3.7-0.1-9.1-1.2c-0.2,0.8,0.9,3.3,1.5,3.5c3.3-0.7,7.7-0.8,7.7-0.8l9.9-0.1c0,2.8,0,5.6-0.2,7.3l-17.2,0.2
	c0,0-3.7-0.1-9.1-1.2c-0.2,0.8,0.9,3.3,1.5,3.5c3.3-0.7,7.7-0.8,7.7-0.8l48.5-0.4c1-0.1,1.5-0.9,0.5-2c-1.6-1.7-3.8-3.4-6.5-4.5
	c-0.3-0.1-3.2,2.7-4.6,5l-14.5,0.1c-0.1-2.4-0.2-5.2-0.2-7.3l18.7-0.2c1-0.1,1.5-0.9,0.5-2c-1.6-1.7-3.8-3.4-6.5-4.5
	c-0.3-0.1-3.2,2.7-4.6,5l-8.1,0.1c0-0.9,0-1.6,0.1-1.8c0.3-1.4,4.1-1.6,2.3-3.3c-1-1-3.2-1.6-5.2-2c5.3-3,8.2-6.8,9.9-11.2
	c0.1,0.1,0.1,0.1,0.2,0.2c3.6,4,8.1-1,3.2-4.6c-0.5-0.4-1.2-0.8-1.8-1.1c0.6-3.2,0.9-6.7,1.2-10.5l3.9,0
	c-0.6,11.2-0.8,22.1,4.8,28.5c2.6,3,7.8,4.7,9,1.4C313.6,230.1,312,229.5,312,227.1"/>
<path d="M256.1,198.6c3.3-0.7,7.6-0.8,7.6-0.8l21-0.2c0.9-0.1,1.2-0.8,0.4-1.7c-1.3-1.4-3.2-2.9-5.3-3.8c-0.2-0.1-2.4,2.1-3.6,4
	l-4.1,0c-0.1-1.5,0-2.5,0.1-3.1c0.3-1.3,3.7-1.4,2.1-3c-1.6-1.6-6.7-2.2-8-2c0.3,1.7,0.8,5.4,0.6,8.1l-3.2,0c0,0-3.7-0.1-9.1-1.2
	C254.4,195.9,255.4,198.3,256.1,198.6"/>
<path d="M393.3,245.3c-19.3-7.1-28.4-25.9-29.9-35.1l25.2-0.2c1.1-0.1,1.6-1.1,0.5-2.3c-1.7-2-4.1-3.9-6.9-5.1
	c-0.3-0.1-3.6,3.6-4.9,6l-14.1,0.1c0.2-2.9,0.7-10.8,0.7-13.6c0-1.5,1.2-2.1,2.3-2.5c0.9-0.3,1.3-1.2,0.5-2
	c-1.8-1.7-7.7-2.4-10.6-2.6c0.1,2.1,1.3,5.8,0.2,20.8l-14.5,0.1c0,0-3.7-0.1-9.1-1.2c-0.2,0.8,0.9,3.3,1.5,3.5
	c3.3-0.8,7.7-0.8,7.7-0.8l14.3-0.1c-1.4,15.4-8.6,30.3-25.7,39.9c-1.9,1.1-1.3,1.4,0.4,0.8c21.5-7.6,29.5-23.1,31.8-37.6
	c0.4,14.7,7.3,24.3,15.5,32.6c4,4,5.1,3.8,6.5,2.9c2.8-1.7,5.9-2.6,8.5-3.2C393.7,245.7,393.9,245.5,393.3,245.3"/>
<path d="M414.4,324.2c-0.3,0-0.7-0.1-1.1-0.2c-1.8-0.3-3.2-1.4-3.2-3.9v-25.5c0-0.4-0.1-0.7-0.4-0.9c-0.4-0.3-0.8-0.1-1.2,0.1
	l-8.8,4.3c-0.4,0.2-0.5,0.5-0.5,0.8c0,0.4,0.2,0.6,0.7,0.8l1.8,0.5c1.5,0.4,2.1,1.4,2.1,4.5v15.5c0,2.5-1.4,3.7-3.2,3.9
	c-0.5,0.1-0.9,0.1-1.1,0.2c-0.4,0.1-0.6,0.3-0.6,0.6v1c5.4-0.3,10.9-0.3,16.3,0v-1C415,324.5,414.8,324.3,414.4,324.2"/>
<path d="M406.9,285.8c2.2,0,4.1-1.8,4.1-4.1c0-2.2-1.8-4.1-4.1-4.1c-2.3,0-4.1,1.8-4.1,4.1C402.8,284,404.6,285.8,406.9,285.8"/>
<path d="M110.8,324.2c-0.3,0-0.7-0.1-1.1-0.2c-1.8-0.3-3.2-1.4-3.2-3.9v-25.5c0-0.4-0.1-0.7-0.4-0.9c-0.4-0.3-0.8-0.1-1.2,0.1
	L96,298c-0.4,0.2-0.5,0.5-0.5,0.8c0,0.4,0.2,0.6,0.7,0.8l1.8,0.5c1.5,0.4,2.1,1.4,2.1,4.5v15.5c0,2.5-1.4,3.7-3.2,3.9
	c-0.5,0.1-0.9,0.1-1.1,0.2c-0.4,0.1-0.6,0.3-0.6,0.6v1c5.4-0.3,10.9-0.3,16.3,0v-1C111.4,324.5,111.2,324.3,110.8,324.2"/>
<path d="M103.3,285.8c2.3,0,4.1-1.8,4.1-4.1c0-2.2-1.8-4.1-4.1-4.1c-2.2,0-4.1,1.8-4.1,4.1C99.2,284,101,285.8,103.3,285.8"/>
<path d="M326,293.5c-8.7,0-15.5,7.4-15.5,16.6c0,9.9,6.7,16.6,15.8,16.6c4.4,0,8.1-2,10.7-5.1c1.1-1.3,1.2-1.8,0.7-2.2
	c-0.4-0.4-1,0-2.4,1.1c-2,1.4-4.8,2.2-7.1,2.2c-4.3,0-9.3-2.9-11-9c-0.7-2.4-0.8-5-0.6-7.4h20.1c0.6,0,1-0.2,1.4-0.7
	c0.4-0.5,0.4-0.8,0.4-1.4C338.1,297.1,331.4,293.5,326,293.5 M316.9,304.2c1.1-5.1,4.1-9.1,8.5-9.1c3.4,0,6.6,2.7,6.9,9.1H316.9z"/>
<path d="M76.7,293.5c-8.7,0-15.5,7.4-15.5,16.6c0,9.9,6.7,16.6,15.8,16.6c4.4,0,8.1-2,10.7-5.1c1.1-1.3,1.2-1.8,0.7-2.2
	c-0.4-0.4-1,0-2.4,1.1c-2,1.4-4.8,2.2-7.1,2.2c-4.3,0-9.3-2.9-11-9c-0.7-2.4-0.8-5-0.6-7.4h20.1c0.6,0,1-0.2,1.4-0.7
	c0.4-0.5,0.5-0.8,0.4-1.4C88.9,297.1,82.2,293.5,76.7,293.5 M67.6,304.2c1.1-5.1,4.1-9.1,8.5-9.1c3.4,0,6.6,2.7,6.9,9.1H67.6z"/>
<path d="M132.1,293.5c-8.6,0-15.5,7.4-15.5,16.6c0,9.2,7,16.6,15.5,16.6c8.6,0,15.5-7.4,15.5-16.6
	C147.7,300.9,140.7,293.5,132.1,293.5 M132.1,325.1c-4.4,0-8.3-5.3-8.3-15c0-9.7,3.9-15,8.3-15c4.4,0,8.3,5.3,8.3,15
	C140.4,319.8,136.6,325.1,132.1,325.1"/>
<path d="M60.5,324.2c-0.1,0-0.3,0-0.4-0.1c-2.4-0.3-4.4-1.4-6-3.3l-22.1-25.6l14.5-12.6c2.2-1.9,4.7-2.9,7.5-3.3
	c0.5-0.1,0.9-0.1,1.2-0.2c0.4-0.1,0.7-0.3,0.7-0.6v-1c-5.8,0.3-11.6,0.3-17.4,0v1c0,0.3,0.3,0.6,0.7,0.6c0.7,0.1,1.8,0.3,3.1,0.4
	c1.5,0.2,1.2,1.1,0.6,1.7l-18.3,17.4v-15c0-2.8,1.6-4.1,3.4-4.4c0.3,0,0.6-0.1,0.8-0.1c0.4-0.1,0.6-0.3,0.6-0.6v-1
	c-5.4,0.3-11.3,0.3-16.7,0v1c0,0.3,0.2,0.6,0.6,0.6c0.2,0,0.5,0.1,0.8,0.1c1.8,0.3,3.4,1.5,3.4,4.4v35.9c0,2.8-1.6,4.1-3.4,4.4
	c-0.3,0.1-0.6,0.1-0.8,0.1c-0.4,0.1-0.6,0.3-0.6,0.6v1c5.4-0.3,11.3-0.3,16.7,0v-1c0-0.3-0.2-0.6-0.6-0.6c-0.2,0-0.5-0.1-0.8-0.1
	c-1.8-0.3-3.4-1.5-3.4-4.4v-17.9l2-1.7l19.1,22c0.6,0.7,0.8,1.7-0.7,1.8c-1,0.1-1.9,0.2-2.4,0.3c-0.4,0-0.6,0.3-0.6,0.6v1
	c6.5-0.3,12.8-0.3,19.3,0v-1C61.1,324.5,60.8,324.3,60.5,324.2"/>
<path d="M199.7,277.7v1c0,0.3,0.2,0.6,0.6,0.6c0.4,0.1,0.9,0.1,1.5,0.2c2.4,0.3,4.3,1.1,4.3,13.9v15.8c0,8.8-5.9,13.2-13.1,13.2
	c-7.2,0-12.8-4-12.8-13.2v-25.4c0-2.8,1.6-4.1,3.4-4.4c0.3,0,0.6-0.1,0.8-0.1c0.4-0.1,0.6-0.3,0.6-0.6v-1c-5.4,0.3-11.7,0.3-17.2,0
	v1c0,0.3,0.2,0.6,0.6,0.6c0.2,0,0.5,0.1,0.8,0.1c1.8,0.3,3.4,1.5,3.4,4.4v24.7c0,14.1,8.6,18.2,18.4,18.2c10.3,0,18.3-5.1,18.3-18.2
	v-15.1c0-12.9,1.9-13.6,4.3-13.9c0.6-0.1,1.2-0.2,1.5-0.2c0.5-0.1,0.6-0.3,0.6-0.6v-1C210.6,278,205.1,278,199.7,277.7"/>
<path d="M297,294.3v1c0,0.3,0.3,0.6,0.6,0.6c0.5,0.1,1,0.2,1.6,0.3c1.3,0.3,1.9,1,1.4,2.4l-6.6,18.8l-6.9-19
	c-0.5-1.4,0.1-2.1,1.4-2.3c0.5-0.1,0.9-0.1,1.2-0.2c0.3,0,0.6-0.3,0.6-0.6v-1c-5.4,0.3-8.9,0.3-14.3,0v1c0,0.3,0.3,0.6,0.6,0.6
	c0.1,0,0.1,0,0.2,0c2.2,0.4,3.2,1.2,4,3.3l10,27.4h0h2.1l11.1-27.3c0.7-1.8,1.6-2.9,4-3.3c0.2,0,0.3-0.1,0.5-0.1
	c0.3,0,0.6-0.3,0.6-0.6v-1C303.7,294.7,302.4,294.7,297,294.3"/>
<path d="M365.7,293.6c-3.7-0.7-7.6,1.5-10.1,5v-4c0-0.4-0.1-0.8-0.4-0.9c-0.4-0.3-0.7-0.1-1.1,0.1l-8.8,4.3
	c-0.4,0.2-0.5,0.5-0.5,0.8c0,0.4,0.2,0.6,0.7,0.8l1.8,0.5c1.5,0.4,2.1,1.4,2.1,4.5v15.5c0,2.5-1.4,3.7-3.2,3.9
	c-0.5,0.1-0.9,0.1-1.1,0.2c-0.4,0.1-0.6,0.3-0.6,0.6v1c5.4-0.3,11.6-0.3,17,0v-1c0-0.3-0.2-0.6-0.6-0.6c-0.3,0-0.7-0.1-1.1-0.2
	c-2.7-0.4-4-1.3-4-3.9v-14.9c0-6,2.2-8.4,6.9-6.2c3.3,1.5,5.1,1.1,6-1.2C369.4,295.6,367.8,294,365.7,293.6"/>
<path d="M383.9,306.4c-3.4-2.2-5.9-3.6-5.9-6.5c0-2.5,1.6-4.6,4.5-4.6c2.9,0,5.4,3.6,6.5,6c0.1,0.3,0.4,0.5,0.8,0.5
	c0.5-0.1,0.6-0.3,0.6-0.7v-6.1c-2.9-1.2-6.1-1.4-7.8-1.4c-3.4,0-9.6,2.2-9.6,8.1c0,4.2,2,6.8,6.7,9.9c3.3,2.2,7.7,4,7.7,8
	c0,3.5-3.2,5.5-6,5.5c-4.1,0-6.6-4.1-7.7-8.8c-0.1-0.5-0.4-0.6-0.8-0.7c-0.4,0-0.7,0.2-0.8,0.8c-0.1,0.8-1.4,6-1.4,6
	c1.7,2.2,6.3,4.6,10.6,4.6c6.1,0,11.3-3.2,11.3-9.6C392.7,311.5,388.2,309.2,383.9,306.4"/>
<path d="M439.4,322.2c-1.4,0.6-3,1.4-4.7,1.4c-3.2,0-4.9-1.9-4.9-5.7v-20.6h7.8c1.1,0,1.3-0.4,1.3-1.7v-1h-9.1V289
	c0-0.8,0-1.3-0.4-1.5c-0.4-0.2-0.7-0.2-1.1,0.1l-8.8,7.9c-0.4,0.3-0.5,0.5-0.5,1c0,0.4,0.2,0.6,0.7,0.8l1.8,0.5c1.5,0.4,2,1.4,2,4.4
	v17.1c0,6.5,5.5,7.5,8.2,7.5c2.7,0,5.9-0.9,8.4-2.7c1.5-1,1.8-1.6,1.5-2.1C441.1,321.4,440.7,321.6,439.4,322.2"/>
<path d="M461.5,294.3v1c0,0.3,0.3,0.6,0.6,0.6c0.5,0.1,1,0.2,1.6,0.3c1.3,0.3,1.9,1,1.4,2.4l-6.6,18.8l-6.9-19
	c-0.5-1.4,0.1-2.1,1.4-2.3c0.5-0.1,0.9-0.1,1.2-0.2c0.3,0,0.6-0.3,0.6-0.6v-1c-5.4,0.3-8.2,0.3-13.6,0v1c0,0.3,0.3,0.6,0.6,0.6
	c0.1,0,0.1,0,0.2,0c2.1,0.3,2.6,1.5,3.2,3.3l9.6,26.4l-0.4,1l-3.2,7.8c-1.1,2.7-2.2,2.9-4.6,3c-2.4,0.1-3.1,1.4-3.1,2.8
	c0,2,1.2,3.1,3.5,3.1c2.3,0,4.3-1.8,5.3-4.1l16.2-39.9c0.7-1.8,1.6-2.9,4.1-3.3c0.2,0,0.3-0.1,0.5-0.1c0.3,0,0.6-0.3,0.6-0.6v-1
	C468.2,294.7,466.9,294.7,461.5,294.3"/>
<path d="M254.9,324.2c-0.3,0-0.7-0.1-1.1-0.2c-1.8-0.3-3.2-1.4-3.2-3.9v-15c0-6.3-2.4-11.6-9.7-11.6c-4.8,0-8.6,1.8-11,5v-4
	c0-0.4-0.1-0.7-0.4-0.9c-0.4-0.3-0.6-0.1-1,0.1l-8.9,4.3c-0.4,0.2-0.5,0.5-0.5,0.8c0,0.4,0.2,0.6,0.7,0.8l1.8,0.5
	c1.5,0.4,2,1.4,2,4.5v15.5c0,2.5-1.4,3.7-3.2,3.9c-0.5,0.1-0.9,0.1-1.1,0.2c-0.4,0.1-0.6,0.3-0.6,0.6v1c5.4-0.3,10.7-0.3,16.1,0v-1
	c0-0.3-0.2-0.6-0.6-0.6c-0.3,0-0.7-0.1-1.1-0.2c-1.7-0.2-3.1-1.4-3.1-3.9v-15c0-4.8,2.9-8.7,7.6-8.7c5.6,0,6.7,4.5,6.7,8.7v15
	c0,2.5-1.4,3.7-3.1,3.9c-0.5,0.1-0.9,0.1-1.1,0.2c-0.4,0.1-0.6,0.3-0.6,0.6v1c5.4-0.3,10.7-0.3,16.1,0v-1
	C255.5,324.5,255.3,324.3,254.9,324.2"/>
<path d="M275.3,324.2c-0.3,0-0.7-0.1-1.1-0.2c-1.8-0.3-3.2-1.4-3.2-3.9v-25.5c0-0.4-0.1-0.7-0.4-0.9c-0.4-0.3-0.8-0.1-1.2,0.1
	l-8.8,4.3c-0.4,0.2-0.5,0.5-0.5,0.8c0,0.4,0.2,0.6,0.7,0.8l1.8,0.5c1.5,0.4,2.1,1.4,2.1,4.5v15.5c0,2.5-1.4,3.7-3.2,3.9
	c-0.5,0.1-0.9,0.1-1.1,0.2c-0.4,0.1-0.6,0.3-0.6,0.6v1c5.4-0.3,10.9-0.3,16.3,0v-1C275.9,324.5,275.6,324.3,275.3,324.2"/>
<path d="M267.7,285.8c2.2,0,4.1-1.8,4.1-4.1c0-2.2-1.8-4.1-4.1-4.1c-2.3,0-4.1,1.8-4.1,4.1C263.7,284,265.5,285.8,267.7,285.8"/>
<path d="M79.1,365.7c-0.8,0-1.4,0.5-1.4,1.4c0,0.8,0.6,1.2,1.4,1.4c1.2,0.3,0.8,1.8-1.4,3c-0.3,0.1-0.4,0.2-0.3,0.4
	c0.1,0.1,0.2,0.1,0.5,0c1-0.5,3-1.4,3.2-3.6C81.3,366.5,80.1,365.7,79.1,365.7"/>
<path d="M59.3,357.2v0.3c0,0.1,0.1,0.2,0.2,0.2c0.2,0,0.3,0.1,0.5,0.1c0.4,0.1,0.6,0.3,0.5,0.8l-2.1,6l-2.2-6.1
	c-0.2-0.4,0-0.7,0.4-0.8c0.1,0,0.3,0,0.4-0.1c0.1,0,0.2-0.1,0.2-0.2v-0.3c-1.7,0.1-2.6,0.1-4.4,0v0.3c0,0.1,0.1,0.2,0.2,0.2
	c0,0,0,0,0.1,0c0.7,0.1,0.8,0.5,1,1.1l3.1,8.5l-0.1,0.3l-1,2.5c-0.3,0.9-0.7,0.9-1.5,1c-0.8,0-1,0.4-1,0.9c0,0.7,0.4,1,1.1,1
	c0.7,0,1.4-0.6,1.7-1.3l1.6-4.1l0.2-0.6l3.3-8.2c0.2-0.6,0.5-0.9,1.3-1.1c0.1,0,0.1,0,0.1,0c0.1,0,0.2-0.1,0.2-0.2v-0.3
	C61.5,357.3,61.1,357.3,59.3,357.2"/>
<path d="M146.4,366.8c-0.1,0-0.2,0-0.4-0.1c-0.6-0.1-1-0.4-1-1.3v-4.8c0-2-0.8-3.7-3.1-3.7c-1.6,0-2.8,0.6-3.5,1.6v-1.3
	c0-0.1,0-0.2-0.1-0.3c-0.1-0.1-0.2,0-0.3,0l-2.8,1.4c-0.1,0.1-0.2,0.2-0.1,0.3c0,0.1,0.1,0.2,0.2,0.2l0.6,0.2
	c0.5,0.1,0.7,0.4,0.7,1.5v5c0,0.8-0.4,1.2-1,1.3c-0.2,0-0.3,0-0.4,0.1c-0.1,0-0.2,0.1-0.2,0.2v0.3c1.7-0.1,3.4-0.1,5.2,0
	c0-0.1,0-0.2,0-0.3c0-0.1-0.1-0.2-0.2-0.2c-0.1,0-0.2,0-0.4-0.1c-0.6-0.1-1-0.5-1-1.3v-4.8c0-1.6,0.9-2.8,2.5-2.8
	c1.8,0,2.2,1.4,2.2,2.8v4.8c0,0.8-0.4,1.2-1,1.3c-0.2,0-0.3,0-0.4,0.1c-0.1,0-0.2,0.1-0.2,0.2v0.3c1.7-0.1,3.4-0.1,5.2,0V367
	C146.6,366.9,146.5,366.8,146.4,366.8"/>
<path d="M32.2,357c-2.8,0-5,2.4-5,5.3s2.2,5.3,5,5.3c2.8,0,5-2.4,5-5.3S34.9,357,32.2,357 M32.2,367.1c-1.4,0-2.7-1.7-2.7-4.8
	c0-3.1,1.3-4.8,2.7-4.8c1.4,0,2.7,1.7,2.7,4.8C34.8,365.4,33.6,367.1,32.2,367.1"/>
<path d="M69.7,357c-2.8,0-5,2.4-5,5.3s2.2,5.3,5,5.3c2.8,0,5-2.4,5-5.3S72.4,357,69.7,357 M69.7,367.1c-1.4,0-2.7-1.7-2.7-4.8
	c0-3.1,1.3-4.8,2.7-4.8c1.4,0,2.7,1.7,2.7,4.8C72.3,365.4,71.1,367.1,69.7,367.1"/>
<path d="M89.7,351.9v0.3c0,0.1,0.1,0.2,0.2,0.2c0.1,0,0.2,0,0.3,0c0.6,0.1,1.1,0.5,1.1,1.4v10.5c0,4.1-0.6,5.3-3,7
	c-0.3,0.2-0.4,0.3-0.3,0.5c0.1,0.2,0.4,0.2,0.5,0.1c3.4-1.3,4.9-3.2,4.9-7.6v-10.5c0-0.9,0.5-1.3,1.1-1.4c0.1,0,0.2,0,0.3,0
	c0.1,0,0.2-0.1,0.2-0.2v-0.3C93.3,352,91.4,352,89.7,351.9"/>
<path d="M26.7,355.5c0,0.1,0.1,0.2,0.3,0.2h0.3v-2.8v-1.3H27c-0.2,0-0.3,0.1-0.3,0.2c-0.2,0.4-0.5,0.7-1.2,0.7H16
	c-0.8,0-1.1-0.2-1.3-0.7c0-0.1-0.1-0.2-0.3-0.2h-0.3l-0.5,1.3l-1,2.8h0.3c0.2,0,0.3-0.1,0.3-0.1l0.2-0.4c0.7-1.1,1.4-1.8,3.1-1.8
	h2.4v12.1c0,0.9-0.8,1.2-1.4,1.3c-0.1,0-0.5,0.1-0.6,0.1c-0.1,0-0.2,0.1-0.2,0.2v0.3c1.7-0.1,4.9-0.1,6.6,0V367
	c0-0.1-0.1-0.2-0.2-0.2c-0.1,0-0.5-0.1-0.6-0.1c-0.6-0.1-1.4-0.4-1.4-1.3v-12.1h3.2c1.5,0,1.9,0.7,2.1,1.7L26.7,355.5z"/>
<path d="M106.6,366.2c-0.3,0.3-0.6,0.5-0.8,0.5c-0.5,0-0.6-0.4-0.6-1.2v-5.2c0-2.2-0.6-3.4-2.9-3.4c-1.4,0-3.4,0.9-3.9,2.3
	c-0.1,0.4-0.2,1.1,0.5,1.2c0.4,0.1,0.9,0,1-0.7c0.2-1.2,0.8-2.2,1.9-2.2c1.3,0,1.5,1.5,1.5,2.8v1.6c-1,0.2-2.1,0.4-2.9,0.6
	c-1.6,0.5-2.7,1.3-2.5,3c0.1,1.4,1.2,2.1,2.1,2.1c1.3,0,2.5-0.6,3.4-1.2c0.3,1,0.9,1.2,1.6,1.2c0.7,0,1.6-0.5,2.1-1.1
	c0.1-0.1,0.2-0.3,0.1-0.4C106.9,365.9,106.8,366,106.6,366.2 M101.3,366.6c-0.7,0-1.4-0.5-1.5-1.6c-0.1-1.1,0.6-1.7,1.6-2.1
	c0.7-0.3,1.3-0.5,1.9-0.6v3.1c0,0.1,0,0.2,0,0.4C102.6,366.3,102,366.6,101.3,366.6"/>
<path d="M131.9,366.2c-0.3,0.3-0.6,0.5-0.8,0.5c-0.5,0-0.6-0.4-0.6-1.2v-5.2c0-2.2-0.6-3.4-2.9-3.4c-1.4,0-3.4,0.9-3.9,2.3
	c-0.1,0.4-0.2,1.1,0.5,1.2c0.4,0.1,0.9,0,1-0.7c0.2-1.2,0.8-2.2,1.9-2.2c1.3,0,1.5,1.5,1.5,2.8v1.6c-1,0.2-2.1,0.4-2.9,0.6
	c-1.6,0.5-2.7,1.3-2.5,3c0.2,1.4,1.2,2.1,2.2,2.1c1.3,0,2.5-0.6,3.4-1.2c0.3,1,0.9,1.2,1.6,1.2c0.7,0,1.6-0.5,2.1-1.1
	c0.1-0.1,0.2-0.3,0.1-0.4C132.2,365.9,132.1,366,131.9,366.2 M126.6,366.6c-0.7,0-1.4-0.5-1.5-1.6c-0.1-1.1,0.6-1.7,1.6-2.1
	c0.7-0.3,1.3-0.5,1.9-0.6v3.1c0,0.1,0,0.2,0,0.4C127.9,366.3,127.2,366.6,126.6,366.6"/>
<path d="M116.1,357c-1.3,0.1-2.4,0.7-3,1.5v-1.1c0-0.1,0-0.2-0.1-0.3c-0.1-0.1-0.2,0-0.4,0l-2.8,1.4c-0.1,0.1-0.2,0.2-0.2,0.3
	c0,0.1,0.1,0.2,0.2,0.2l0.6,0.2c0.5,0.1,0.7,0.4,0.7,1.4v10.3c0,0.8-0.4,1.2-1,1.3c-0.2,0-0.3,0-0.4,0.1c-0.1,0-0.2,0.1-0.2,0.2v0.3
	c1.7-0.1,3.7-0.1,5.5,0v-0.3c0-0.1-0.1-0.2-0.2-0.2c-0.1,0-0.2,0-0.4-0.1c-0.9-0.1-1.3-0.4-1.3-1.3v-3.7c0.6,0.3,1.3,0.5,1.8,0.5
	c2.7,0,4.8-2.1,4.8-5.6C119.7,359.6,119.4,356.8,116.1,357 M114.9,367c-1,0-1.8-0.7-1.8-2.4v-5.2c0.6-0.9,1.5-1.5,2.3-1.6
	c1.7-0.2,2.2,1.5,2.2,4.3C117.5,365.1,116.5,367,114.9,367"/>
<path d="M51.7,366.8c-0.1,0-0.1,0-0.2,0c-0.5-0.1-1.1-0.4-1.4-0.8l-4.2-4.9l3.1-2.7c0.4-0.3,1-0.6,1.5-0.7c0.1,0,0.2,0,0.3,0
	c0.1,0,0.2-0.1,0.2-0.2v-0.3c-1.7,0.1-2.8,0.1-4.5,0v0.3c0,0.1,0.1,0.2,0.2,0.2c0.1,0,0.3,0.1,0.6,0.1c0.6,0.1,0.4,0.5,0.2,0.7
	l-3.7,3.5v-10.2c0-0.1,0-0.2-0.1-0.3c-0.1-0.1-0.2,0-0.3,0l-2.8,1.4c-0.1,0.1-0.2,0.2-0.2,0.3c0,0.1,0.1,0.2,0.2,0.2l0.6,0.2
	c0.5,0.1,0.7,0.4,0.7,1.4v10.4c0,0.8-0.4,1.2-1,1.3c-0.2,0-0.3,0-0.4,0.1c-0.1,0-0.2,0.1-0.2,0.2v0.3c1.7-0.1,3.4-0.1,5.2,0V367
	c0-0.1-0.1-0.2-0.2-0.2c-0.1,0-0.2,0-0.4-0.1c-0.6-0.1-1-0.5-1-1.3V363l0.7-0.6l3.1,3.6c0.2,0.2,0.3,0.7-0.3,0.8c-0.1,0-0.2,0-0.3,0
	c-0.1,0-0.2,0.1-0.2,0.2v0.3c1.7-0.1,3.4-0.1,5.2,0V367C51.9,366.9,51.8,366.8,51.7,366.8"/>
</svg>
