<?xml version="1.0" encoding="utf-8"?>
<!-- Generator: Adobe Illustrator 19.2.1, SVG Export Plug-In . SVG Version: 6.00 Build 0)  -->
<svg version="1.1" id="layer" xmlns="http://www.w3.org/2000/svg" xmlns:xlink="http://www.w3.org/1999/xlink" x="0px" y="0px"
	 viewBox="0 0 652 652" style="enable-background:new 0 0 652 652;" xml:space="preserve">
<style type="text/css">
	.st0{fill:#B41218;}
	.st1{fill:#5D6673;}
</style>
<path class="st0" d="M622.7,242.6c-55.5-37.1-132-29.6-132-29.6c-4.6-7.4-4.1-17.8-4.1-19.7c0-1.8-2.3-3.5-2.8-0.2
	c-2.7,15.6,0.4,25.7,2.7,32.3c2.3,6.6,9.2,3.9,16.1,3.3c83.3-7.1,99.9,11.8,99.9,11.8c-2.1,19.8,3.7,43.1,7.8,47
	c1,1,4.3,1.1,4.5-1.9c2.2-22.7,7.2-35.3,9-38.2C625.5,244.7,623.5,243.2,622.7,242.6"/>
<path class="st0" d="M453.3,116c0.4,3.8,2.3,4.2,4.2-0.3c1.4-3.5,2.4-17,0.8-22.7c0,0,12.5,2.9,34.9,24.8c3.1,3,5.8,0.5,4-3.9
	c-1.4-3.4-17-46.3-66.5-43.1c-2,0.2-1.8,1.7-0.5,3.3C431.8,76.2,451.7,101.9,453.3,116"/>
<path class="st0" d="M424.3,142.4c-0.3,2.9,1.1,3.2,3.2,0.2c1.6-2.3,4.4-7.5,4.3-13.5c0,0,10.3,9,18.7,27.2c1.5,3.3,4.2,2.3,3.4-1.7
	c-0.7-3.4-1.8-41.4-34.8-56.4c-2.9-0.9-3.2,2-2.2,3.7C418,103.6,425.7,127.8,424.3,142.4"/>
<path class="st0" d="M458.1,284.6c22,1,34.6-5.2,36.2-6.2c1.5-1,2-2.7,0.8-2.6c-1,0.1-1.7,0.1-4,0c-1.9-0.1-89.6,14.5-86.1-74.8
	c0.5-12.8,5.1-19.3,5.1-19.3c5.6,1.6,13.1-0.9,10.7-2.7c-9.5-8.8-7.5-36.8-7.5-36.8c0.1-3.7-2.7-3.1-3.4-0.9c0,0-14,32.1-15.2,63.9
	C392.3,267.8,431.3,283.5,458.1,284.6"/>
<path class="st0" d="M472.7,317.6c-8.8,9.8-26.1,21.2-52.2,18.4c-58-6.2-61.4-56.4-63.4-71.4c-1.6-12,0.1-28.8,0.5-32.8
	c0.4-4.1-3-3.4-3.4-1.2c-0.5,2.2-3.3,16.9-3.6,32c-1.2,52.9,28.6,85.3,70.7,85.3c40.9,0,53.1-24.8,53.9-28.1
	C476,316.5,474.5,315.7,472.7,317.6"/>
<path class="st0" d="M512.4,275.2c-4.6,0.1-4.4,1.7-2.2,2.3c48.5,12.2,64.2,40,59.8,82c-0.5,4.3-1,1.7-1.2,0
	c-6.3-45.7-38.7-65.8-72.9-67.1c-21.8-0.8-39.2,13.3-41.1,15.9c-1.9,2.6,0.1,3,1.4,2.1c1.4-0.9,6.9-4.3,11-5.8
	c51.9-20.2,85.5,30.2,92.3,59.2c6.7,28.6,2.4,42.1,0.6,54.4c-0.6,4,3.7,2.9,4.8,0.4c1.7-3.9,20.8-48.8,16.8-83.7
	C574.8,275.4,517.2,275.1,512.4,275.2"/>
<path class="st0" d="M443.9,308.9c2.3-0.3,2.6-2.5,0.1-2.7c-28-2.5-63.8-15-64.5-75.7c-1.4-10.8,1.4-28,1.5-31.9
	c0.2-3.9-2.3-3-3.4-0.2c-1,2.8-8.3,19.9-6,51.6C377.5,333.8,452.2,307.9,443.9,308.9"/>
<path class="st0" d="M508.5,121.6c-1.6-1.7-3.3-4.9-3.9-13.4c0,0,29.9-12.6,65.5,1.7c0,0,2.3,28.1,7.2,34.3c0,0,20.4,0.3,39.5-11.4
	c10.8-6.6,3.9,21.7,3.9,21.7s7.3-6.1,20.7-3.2c33.6,7.3-0.6,58.6-0.6,58.6l-0.3,0.1c-43.1-2-68.9-42-114-44.1
	c-35.3-1.6-37,8.9-39,18.5c-0.5,2.2-2.2,2-2.5,0.3c-0.5-2.9-4-22.7,5-32c0,0,9.1-3.4,26.5-2.6c52.4,2.5,82.6,48.4,112.3,49.7
	c0,0,29.1-33.5,4.8-40.1c-7.1-1.9-22.6,2.5-25.1,0.9c-0.6-0.3-1.7-1.2-0.7-3c4.4-8,2.8-12.7,2.6-13.4c-1.2-5.1-14.7,6.1-36.6,4.1
	c0,0-11.6-27.6-13.7-36.6c0,0-9.3-2.9-47.8,10.4C509.8,122.9,508.9,122,508.5,121.6"/>
<path class="st0" d="M584.1,251.2c-8.3-4.3-20.6-8.7-34.8-9.2c-12.2-0.4-29.3,1.2-41.9,0.6c-42.7-2-58.7-25.2-57.9-44.4
	c0.4-8,1.7-12.8,2.3-15.6c0.6-2.7-1.4-2.8-2.8-1.4c-1.4,1.3-9.9,13.5-10.6,28.3c-1.1,25.4,19,47.7,48.2,49
	c29.2,1.4,59.8-6.6,72.5-6.4c14.4,0.2,16.5,3.7,22.2,4.5c4.1,0.5,4.7-2.1,4.7-3.5C585.9,252.9,585.9,252.1,584.1,251.2"/>
<path class="st0" d="M564.2,145.4c-12-14.1-28.1-24.8-30.4-24.8c-2.3,0-12.8,2.3-12.8,4.2c0,0.9,13,4.1,21.4,10.9
	c0,0-8.8,3-3.6,11.2c9.5,2.5,18.6,7.1,22.1,8.9C568.2,159.6,569.2,151.3,564.2,145.4"/>
<path class="st0" d="M689.3,229.9c-3,0.2-7.5,0.6-9.9,0.6c-59.5,0-90.4-40.8-137.3-45.8c-27.1-2.9-40.6,4.2-43.3,4.4
	c-2.7,0.3-3.7,3.8-0.4,3.3c3.3-0.4,9.6-1.1,18.5-1.1c51.1,0,87.2,44.7,145.5,44.7c14.4,0,25.6-2.7,27.4-4.6
	C690.4,230.6,690.4,229.9,689.3,229.9"/>
<path class="st1" d="M7.9,312.9h6.9c10.5,0,17-8.2,17-16.3c0-8.5-6.1-16.3-17-16.3H7.9V312.9z M7.9,340.3c0,8.9,0.1,19.3,0.5,23.3
	H-8c0.3-4.1,0.5-14.5,0.5-23.3v-50.2c0-8.9-0.2-17.6-0.5-21.5h24.6c19.4,0,30.6,11.9,30.6,28.1c0,16.1-11.8,27.9-30.9,27.9H7.9
	V340.3z"/>
<path class="st1" d="M148.9,352.1c6.4,0,10.2-2,13.3-4.8v15.9c-4.6,0.5-7.2,1.4-13.7,1.4c-18.4,0-31.6-13.7-31.6-30.6
	c0-17.2,13.4-31.1,31.6-31.1c5.5,0,9.4,1.3,13.3,1.6v15.7c-3.3-2.7-6.8-4.5-12.9-4.5c-9.9,0-17.7,8.2-17.7,18.4
	C131.1,343.8,139.1,352.1,148.9,352.1"/>
<path class="st1" d="M184.4,277.4c4.5,0,8.1,3.8,8.1,8.3c0,4.6-3.5,8.4-8.1,8.4c-4.6,0-8.2-3.8-8.2-8.4
	C176.2,281.2,179.9,277.4,184.4,277.4 M191.9,350.2c0,4.9,0.1,11,0.4,13.4h-15.5c0.2-2.7,0.4-8.9,0.4-13.4v-37.6h-6.3
	c1.6-2,3.1-5.8,4.2-8.6h17.2c-0.3,3-0.4,8.6-0.4,13.3V350.2z"/>
<path class="st1" d="M301.3,352.1c6.4,0,10.2-2,13.3-4.8v15.9c-4.6,0.5-7.2,1.4-13.7,1.4c-18.4,0-31.7-13.7-31.7-30.6
	c0-17.2,13.4-31.1,31.7-31.1c5.5,0,9.4,1.3,13.3,1.6v15.7c-3.2-2.7-6.8-4.5-12.9-4.5c-9.9,0-17.7,8.2-17.7,18.4
	C283.6,343.8,291.6,352.1,301.3,352.1"/>
<path class="st1" d="M76.5,352.5c-9.8,0-17.7-8.4-17.7-18.8c0-10.2,7.8-18.5,17.3-18.5c9.7,0,17.3,8.3,17.3,18.6
	C93.4,344.1,85.8,352.5,76.5,352.5 M107.6,312.5h6.3c-1.4-1.9-3.1-6.4-4-8.6H93.2c0.4,4.3-0.1,5.7-0.1,9.4v-0.8
	c-3.6-6.3-11.1-9.6-19.5-9.6c-17.5,0-29.6,13.6-29.6,31c0,16.7,12.1,30.7,28.5,30.7c8.2,0,15.8-3.2,20.6-10.7c0,4.8-0.2,7.4-0.3,9.8
	h15.4c-0.4-3.6-0.5-8.7-0.5-13.3V312.5z"/>
<path class="st1" d="M260.6,350.6c0,4.7,0.3,10.8,0.5,13.3h-15.3c0.2-2.7,0.3-8.7,0.3-13.3v-35.4h-20.6v35.4
	c0,4.2,0.1,10.3,0.3,13.3h-15.1c0.1-3,0.3-9.1,0.3-13.3v-35.4h-10.4v-10.8h10.4v-6.9c0-19.3,10.9-30,29-30c8.9,0,12.7,3,17,3.5v15
	c-4.2-4.4-8.8-7.4-16.1-7.4c-9.9,0-15.3,6.2-15.3,17.1v8.6h35.7c-0.3,3-0.5,11.7-0.5,16.4V350.6z"/>
<path class="st1" d="M-30.1,378.4c-0.3,3.5-0.5,11.4-0.5,20.7v30.2c0,14.6,8.6,23.7,20.1,23.7c11.5,0,20.1-9.1,20.1-23.7v-30.2
	c0-7.4-0.1-15.2-0.5-20.7h16.3c-0.3,5.7-0.4,13.5-0.4,20.7v29.8c0,23.3-15.1,37.5-35.4,37.5c-20.4,0-35.4-14.1-35.4-37.5v-29.8
	c0-9.3-0.2-17.2-0.5-20.7H-30.1z"/>
<path class="st1" d="M67,413.9c-7.2,0-11.9,5.6-11.9,14.3v21.2c0,3.6,0.1,9.6,0.4,13.4H40c0.3-3.8,0.4-9.8,0.4-13.4v-37.7h-6.3
	c1.8-2.9,3-5.7,4.2-8.6h16.8v8.2c3.1-5.2,9.3-9.3,17.2-9.3c13.4,0,20.8,9.5,20.8,26.7v20.6c0,3.6,0.1,9.6,0.4,13.4H78
	c0.3-3.8,0.4-9.8,0.4-13.4v-20.6C78.4,418.9,73.3,413.9,67,413.9"/>
<path class="st1" d="M148.3,403.3c0.5,1.9,1.3,4.3,2.7,7.4l11.7,28.3l10.4-25.8c2-4.4,2.7-7.3,3.4-9.9h15.9
	c-2.5,4.2-5.5,9.8-7.7,14.6L163.2,465h-2.9L138,416.4c-1.8-4.2-4.2-8.9-6.9-13.2H148.3z"/>
<path class="st1" d="M208.6,424.7h26.6c-0.8-5.6-5.3-11.8-12.9-11.8C215.4,412.9,210.4,418,208.6,424.7 M208.8,434.8
	c0.5,9.5,7.9,17.6,18.6,17.6c7,0,11.7-0.9,16.9-4.3v12.7c-4.3,0.4-8.9,3.1-19.4,3.1c-18,0-31.1-13.4-31.1-30.6
	c0-17.9,12.5-31.2,28.7-31.2c18,0,28,16,28,29.1c0,1.3-0.1,2.9-0.3,3.5H208.8z"/>
<path class="st1" d="M299.1,402.7v15.7c-2.2-1.4-5.1-2.5-8.6-2.5c-7.3,0-12.3,8.9-12.3,16.9v16.8c0,4.4,0.1,8.9,0.4,13.3h-15.5
	c0.3-4.4,0.4-8.9,0.4-13.3v-37.8h-6.3c1.6-2.5,3.1-6,4.1-8.6h15.5v13.4c2.2-8.7,8.7-14.6,16-14.6C296.7,402,297.5,402.7,299.1,402.7
	"/>
<path class="st1" d="M345.8,446.5c0,10.4-7.6,18-21.1,18c-7.2,0-14.5-3-18-3.5v-15.6c3.1,4.7,11.5,8.3,17,8.3c4.5,0,7.3-2.4,7.3-6.1
	c0-9.4-23-9.9-23-28c0-10.7,7.7-17.5,21-17.5c6.3,0,11.1,2.2,14.5,2.4v14.2c-2.6-3.9-9.9-6.1-13.7-6.1c-5.1,0-7,2.6-7,5.7
	C322.7,427.2,345.8,427.5,345.8,446.5"/>
<path class="st1" d="M114.4,376.7c4.6,0,8.1,3.8,8.1,8.3c0,4.5-3.5,8.4-8.1,8.4c-4.6,0-8.2-3.8-8.2-8.4
	C106.2,380.4,109.9,376.7,114.4,376.7 M123.4,449.5c0,4.8,0.1,11,0.4,13.4h-15.5c0.3-2.7,0.4-8.9,0.4-13.4v-37.7h-6.3
	c1.5-1.9,3.1-5.9,4.2-8.6h17.2c-0.2,3-0.4,8.6-0.4,13.3V449.5z"/>
<path class="st1" d="M367.5,376.7c4.6,0,8.1,3.8,8.1,8.3c0,4.5-3.5,8.4-8.1,8.4c-4.6,0-8.2-3.8-8.2-8.4
	C359.3,380.4,363,376.7,367.5,376.7 M375,449.5c0,4.8,0.2,11,0.4,13.4h-15.5c0.3-2.7,0.4-8.9,0.4-13.4v-37.7H354
	c1.5-1.9,3.1-5.9,4.2-8.6h17.2c-0.2,3-0.4,8.6-0.4,13.3V449.5z"/>
<path class="st1" d="M409.4,387.6c-0.3,3.1-0.4,7.3-0.4,11.6v4.1h16.3v12.1H409v24c0,9.1,3.9,12.5,9.1,12.5c1.8,0,4.3-0.6,5.3-1.4
	v12.8c-2.3,0-5.5,0.8-9.4,0.8c-10.5,0-19.5-6.1-19.5-21.8v-26.8h-9v-12.1h9v-4.1c0-4.3-0.1-8.5-0.4-11.6H409.4z"/>
<path class="st1" d="M479.3,403.3c-0.8,2.9-2,7-3.2,10.3c-4,11.1-7,18-11,26.5L452,412.8c-1.7-3.6-3-6.8-3.8-9.5h-17.5
	c2.5,4,4.7,8.3,7.2,13.2l19.7,39.9c-4.6,8.6-14.3,22.7-19.2,30h14.5c4.7-7.6,14.3-22,18.4-30c6-11.2,13.4-28.5,18.1-39.2
	c1.3-3.1,4.3-10.1,6.4-13.8H479.3z"/>
<path class="st1" d="M150.5,492.4c20.5,0,36.2,15.9,36.2,35.6c0,19.7-15.8,35.6-36.2,35.6c-20.2,0-36.1-15.9-36.1-35.6
	C114.4,508.3,130.2,492.4,150.5,492.4 M150.5,553.1c13.3,0,23.7-11.2,23.7-25.1c0-13.9-10.4-25-23.7-25c-13.2,0-23.6,11.1-23.6,25
	C126.9,541.8,137.3,553.1,150.5,553.1"/>
<path class="st1" d="M224.1,497.7v12c-1.7-1.1-3.9-1.9-6.6-1.9c-5.6,0-9.4,6.8-9.4,13v12.9c0,3.4,0.1,6.8,0.3,10.2h-11.9
	c0.2-3.4,0.3-6.8,0.3-10.2v-29.1h-4.8c1.2-1.9,2.4-4.6,3.1-6.6h12v10.3c1.7-6.7,6.7-11.2,12.3-11.2
	C222.2,497.2,222.8,497.7,224.1,497.7"/>
<path class="st1" d="M323.9,498.1c0,3.7-2.7,6-5.8,7.9c1.4,2.1,3.4,5.4,3.4,9.5c0,10-8.9,18.3-20.5,18.3c-3.4,0-5.9-1.4-7.8-1.4
	c-1.7,0-3.2,1.6-3.2,4.1c0,2.1,1.8,4.1,4.2,4.1c1.3,0,3.7-0.7,6.6-0.7c12.9,0,23.9,5.9,23.9,15.7c0,8.4-10.8,15-24,15
	c-13.1,0-23.6-6.2-23.6-14.7c0-4.7,3.1-8.3,7.3-10.5c-3-1.2-4.9-4.6-4.9-7.9c0-3.9,2.9-7.9,7.2-8.9c-3.4-3-6.1-7.4-6.1-13.1
	c0-10.1,9-18.3,20.4-18.3c5.2,0,9.4,1.9,12.3,4.1c0.7-0.6,3.6-2,3.6-3.2H323.9z M300.7,563.1c6.9,0,12.3-2.9,12.3-6.9
	c0-3.9-5.6-7-12.7-7c-6.4,0-11.8,3-11.8,6.8C288.5,560,293.8,563.1,300.7,563.1 M301,524.8c5,0,9-4.2,9-9.3c0-5.1-4-9.2-9-9.2
	c-5,0-9,4.1-9,9.2C292,520.6,296,524.8,301,524.8"/>
<path class="st1" d="M352.1,497.2c13.4,0,24.2,10.6,24.2,23.9c0,13.1-10.8,23.7-24.2,23.7c-13.2,0-24-10.5-24-23.7
	C328.2,507.9,338.9,497.2,352.1,497.2 M352.1,535c7.3,0,13.4-6.2,13.4-14c0-7.8-6-14.1-13.4-14.1c-7.3,0-13.2,6.2-13.2,14.1
	C338.9,528.8,344.8,535,352.1,535"/>
<path class="st1" d="M405.3,506.3c-5.5,0-9.1,4.3-9.1,11v16.4c0,2.8,0.1,7.4,0.3,10.3h-11.9c0.2-2.9,0.3-7.5,0.3-10.3v-29H380
	c1.4-2.2,2.3-4.4,3.2-6.6h12.9v6.3c2.4-4,7.1-7.1,13.2-7.1c10.3,0,16.1,7.3,16.1,20.6v15.9c0,2.8,0.1,7.4,0.3,10.3h-11.9
	c0.2-2.9,0.3-7.5,0.3-10.3v-15.9C414.2,510.1,410.2,506.3,405.3,506.3"/>
<path class="st1" d="M240,525.9c0.9,3.6,6.1,10,14.6,10c5.4,0,9-0.7,13-3.3v9.8c-3.3,0.3-6.8,2.4-14.9,2.4c-13.8,0-24-10.3-24-23.6
	c0-13.7,9.6-24,22.1-24c13.9,0,21.6,12.3,21.6,22.4c0,1,0,2.5-1,6.3H240z M239.4,518.2l22.5,0c0.5-8.1-5-12.7-11.2-12.7
	C244.7,505.5,240.3,510,239.4,518.2"/>
</svg>
