<?xml version="1.0" encoding="utf-8"?>
<!-- Generator: Adobe Illustrator 19.2.1, SVG Export Plug-In . SVG Version: 6.00 Build 0)  -->
<svg version="1.1" id="layer" xmlns="http://www.w3.org/2000/svg" xmlns:xlink="http://www.w3.org/1999/xlink" x="0px" y="0px"
	 viewBox="0 0 652 652" style="enable-background:new 0 0 652 652;" xml:space="preserve">
<style type="text/css">
	.st0{fill:#A6311A;}
	.st1{fill:#FFFFFF;}
	.st2{fill:#BEC07D;}
	.st3{fill:#002C59;}
</style>
<path d="M30.7,93c0,2.2-0.2,5.7,1,6.4c3.4,2,9.2,3.4,11.1,5.4c0.5,0.5-0.1,4-1.5,3.7c-9.3-1.8-9.7-1.7-16.4-1.6
	c-0.6,0-2-2.5-2.1-4.2c-0.1-1,1.6-2.1,2.3-3.8c1-2.8,0.2-15.9,0.6-24.8c0.1-2,0.3-2.8,2.5-2.8c2,0,2.3,1.2,2.3,2.7
	C30.3,80.3,30.7,86.8,30.7,93"/>
<g>
	<path d="M67.8,160.5c0.7-0.2,5.4-0.4,7.7,0c0.6,0.1,1.1,0.5,1.2,0.7c0.7,0.8,0.6,3.9,0.5,4.8c-0.1,2-1.3,3.2-1.3,4.9
		c0.2,14.2,0.5,30.9-0.3,33.9c-1.5,5-1.3,5.9-3.5,6.1c-0.7,0-1.3-0.1-1.8-1.8c-0.3-1.2-0.4-3.3-0.5-5.8c-0.1-5.8,0-20.9-0.3-26.8
		c-0.3-5.3-1.8-5.7-2.3-5.9c-0.6-0.4-1.4-0.5-1.5-1.4c-0.4-1.9,0.3-6.1,1-7.6C66.9,161.2,67.3,160.6,67.8,160.5"/>
	<path d="M8.9,221.6c-1.9,1.9-6.1,2.6-7,0.5c-1.5-3.4-0.7-49.3-0.5-50.2c0.4-1.8,4-1.6,5.4-0.8c3.1,1.9,3.5,3.4,3.9,7.8
		C11.6,191.3,11.8,218.7,8.9,221.6 M-9.6,221.7c-1.9,1.8-3.7,2.5-3.7,0.3c-0.3-14.8-0.1-45.9,0.2-46.9c0.4-1.7,3.1-2.5,4.4,0.2
		C-7.1,178.6-6.5,218.7-9.6,221.7 M80,223.5c-5.5,0-13.8,0.3-15.4-0.6c-1.1-0.6-1-2-1.1-4.7c-0.5-17.9,0.2-35.8-0.1-53.8
		c0-1.6-0.6-4-3-4c-3.2,0-9.2-0.2-9.8,0.2c-0.5,0.2-0.8,0.5-1,0.9c-0.9,1.7-1.5,5.7-1.2,7.6c0.1,0.6,0.5,1.3,1.6,1.5
		c3,0.6,4.5,2.1,4.6,6c0.2,13.5,0.4,40-1.6,44.4c-1,2.2-5.7,3.7-6.9,1.4c-0.9-1.7-0.8-41.5-0.8-57.9c0-2.9-1.1-4.1-4.7-4.1
		c-4.5,0-8.7-0.1-13.3,0c-0.3,0-1.1,0.2-1.5,1c-1,2.2-1.6,7.6-1.1,8.3c0.2,0.3,0.4,0.7,1.5,0.8c6.1,0.6,8.9,3,9,8.5
		c0.2,8.4,1.6,40-2.6,43.4c-1.7,1.4-8.1,1.1-9.6,0.7c-1.1-0.3-1.7-1.1-1.8-2c-1.1-9.6,0.6-56.8-0.7-59.3c-0.5-0.9-1-1.1-2-1.4
		c-1.7-0.4-9.7,0.1-11.2-0.4c-0.3-0.1-1-0.2-1-0.9c-0.2-1.7,0-3.6,0.7-4.9c0.4-0.7,1.5-0.7,2-0.7c23.6,0,57.2,0.2,70-0.2
		c0.7,0,2.1-0.2,2.5-1.2c0.5-1.3,1-4.6,0.7-5.5c-0.2-0.5-0.4-0.7-1.2-0.9c-1.4-0.2-52.9-0.1-79.3-0.4c-1.4,0-3.9,0.1-4.2-0.9
		c-0.4-1.1-0.3-3.4,0.3-4.5c2.6-4.5,4.9-3.5,6.6-10.1c1-4-0.6-7.2,1.6-10.4c3-4.3,5.2-5.6,7.3-8.8c1.3-1.9-1.4-4.8-3.9-4.2
		c-1.8,0.6-12.5,6.9-18.3,15.5c-4.5,6.8-6.2,14.1-9.5,21.3c-0.8,1.8-2,2.2-5.3,2.6c-2,0.2-2.9,6.5-1.5,7.3c0.3,0.2,0.8,0.3,1,0.3
		c3,0.6,4,3.7,4.1,6.9c0,0,0.7,53.7-1,59.4c-1.2,4-2.4,3.5-3.5,3.9c-0.1,0-0.6,0.2-0.8,0.6c-0.5,1.1-1,3.8-0.6,5.2
		c0.1,0.5,0.4,0.8,1.1,0.8c40.2,0,87.9,0,104.8,0c0.9,0,1.3-0.2,1.6-1.3c0.5-1.4,0.8-3.4,0.6-4.5C82,223.5,80.8,223.5,80,223.5"/>
</g>
<g>
	<path d="M654.2,142.4c1-1.3,2.2-3,3.6-4.9c2.1-2.9,3.8-5,5.5-7.3c1.8-2.2,3.6-4.5,7.2-7.8H657l-1.5,2.9h2.2c1.6,0,2,0.3,2.1,1
		c0.1,0.7,0,2.4-1.7,4.5l-8.4,10.7l-12.3-19.1h-0.3h-10.4h-32.7l-1,8.9h4l0.4-2c0.1-1.2,0.6-1.7,1.9-2.5c2.1-1.2,7.4-1.3,11.7-1.3
		V158c0,1.5-0.1,2.5-0.6,3.8c-0.3,0.5-0.6,1.7-1.4,2.2h15l1.2-2.8h-2.2c-1.7,0-2.9-0.3-3.9-1.2c-0.5-0.4-0.6-1.5-0.6-2.7v-31.9
		c2.2,0,9.9-0.1,11.4,1.2c2,1.7,4.9,5.4,4.9,5.4c1,1.5,2.1,3.1,3.2,4.6c3,4,4.9,6.9,6.4,10.2v10.6c0,1.5,0.1,3.1-0.5,4.4
		c-0.3,0.8-1.1,1.5-1.7,2.2h15.1l1.3-2.9h-2.2c-1.7,0-3-0.3-3.9-1.1c-0.5-0.5-0.6-1.5-0.6-2.8c0,0-0.2-9.9-0.1-11.1
		C652.4,144.8,653.2,143.7,654.2,142.4"/>
	<path d="M591.8,164.1H577c0.5-0.7,1.2-1.4,1.5-2.1c0.6-1.4,0.7-2.4,0.7-3.9v-28.7c0-1.3,0-2.3-0.8-3.1c-0.8-0.7-1.6-1.2-2.8-1.2
		H574l1.1-2.7h13.5c-0.8,0.7-1,1.4-1.4,2.1c-0.6,1.1-0.6,3.3-0.6,5.5v27.3c0,1.2,0.3,2.2,0.7,2.7c1,0.9,1.9,1.1,3.6,1.1h2.2
		L591.8,164.1z"/>
	<path d="M557.8,139.9l-4.8-1.9c-4.8-1.9-9.2-3.9-8.6-7.7c1.2-7.1,18.7-8,17.1,1.1h4.4l2.2-8.3c-3.8-1-8-1.6-12.9-1.6
		c-10.1,0.1-19.1,4.3-18.2,11.4c0.6,5,5.3,7.5,10.9,9.6l4.9,1.9c5.5,2.2,10.1,4.2,10,8.5c-0.2,4.7-5.2,7.9-11.7,8
		c-9.3,0.1-12.2-2.5-12.2-2.5c-0.1-0.1-17.6-16.8-17.6-16.8c6.6-1.2,11.7-5.1,11.4-10.5c-0.2-6.6-8.8-9-16.1-8.9l-19.6,0.1l-1.3,2.7
		h1.8c1.3,0,2.1,0.2,2.8,1c1.1,1,1.3,3.6,1.3,6.4v26.4c0,2-0.6,3.6-2,5.2h13.9l1.2-2.9h-2c-2.8,0-3.6-1.3-3.6-3.4l-0.1-32
		c7.6-1.1,15.6,0.9,15.6,6.8c0,4.7-5.5,7.8-13.9,8.1l23.1,23.3c0,0,12.8,0.8,16.6,0.9c10.8,0.2,20.1-5.4,20-13.5
		C570.3,145.1,564.3,142.4,557.8,139.9"/>
	<path d="M144.2,117.8h-4.4l0.4-1.8c0.4-2.3,0.1-4-1.7-5.8c-2.2-2.1-10.7-1.8-16.3-1.9v46.7c0,1.8,0.2,3.5,1,4.3
		c1.5,1.5,3.4,1.9,5.7,1.9h2l-1.2,3h-17.9c0.7-0.8,1.2-1.6,1.5-2.5c0.8-2,0.9-3.5,0.9-5.7l0.1-47.7c-5.7,0-13.4,0.1-16.6,2
		c-1.8,1.2-2.6,2.2-2.8,4l-0.4,2.4h-4.3l1.5-11.7h55L144.2,117.8z"/>
	<path d="M192.5,164h-13.4c1-2,1.2-2.8,1.2-4.9v-17.5c-2,1.2-4.3,1.4-6.7,1.6c-2.1,0.1-4.6,0.2-6.9,0.3c-4.1,0.3-6.4,0.3-10.2,0.2
		v14.1c0,2.4,1,3.5,4,3.5h1.9l-1.1,2.9h-14.1c1.1-1.8,1.6-3.3,1.8-5.3c0.1-0.8,0.1-1.6,0.1-2.7v-25.2c0-1.4,0.3-3.8-0.8-5
		c-0.8-0.7-1.7-0.7-3.2-0.7h-1.7l1.3-2.8h12.8c-0.4,0.9-0.6,1.1-0.7,1.7c-0.2,1.2-0.3,4.2-0.3,5.5v10h23.9l-0.1-8.7
		c0-1.4,0.2-3.7-0.9-4.9c-0.7-0.7-1.7-0.8-3.1-0.8h-1.8l1.4-2.8h12.9c-0.3,1.1-0.5,1.1-0.6,1.7c-0.3,1.2-0.4,4.2-0.4,5.5v28.2
		c0,2.3,1,3.4,4.1,3.4h2L192.5,164z"/>
	<path d="M232,164l-33.6,0.1c0.7-0.8,1.4-1.7,1.7-2.7c0.5-1.7,0.4-3.1,0.4-4.9v-24c0-1.3,0-4.7-0.7-5.8c-0.8-1.2-1.6-1.6-3.2-1.6
		h-1.7l1.2-2.7c0,0,33.2-0.1,34.8,0l-1.4,9.1h-4.2c0.2-2.2-0.2-3.5-1.6-4.8c-1.4-1.2-5.9-1.5-10.1-1.5c-2.2,0-3.6,0.1-5.6,0.4v14h19
		c-1.2,2.8-3.6,3.4-6.9,3.8c-1.4,0.1-2.8,0.2-4.4,0.3c-3,0.2-4.8,0.1-7.7,0.1v12.2c0,1.4,0.6,3.1,1.1,3.6c0.9,0.9,4.2,1.2,7.8,1.2
		c3.7,0,6.6,0,8.9-2.1c1.5-1.3,2.2-2.4,2.6-4.6h4.8L232,164z"/>
	<path d="M325.2,164.1h-15.3l-0.1-5.3c-10.5,4.8-20.5,8.2-32.1,5.3c-13.3-3.4-12.6-17.3-12.7-29.6c-0.1-9.5,2.7-21,0.8-24.1
		c-0.9-1.4-2.7-2.3-4.9-2.3h-1.7l0.8-3h16.8c-0.8,1.2-0.9,1.9-1.2,3c-0.9,3.9-2.7,17.7-2.6,27.7c0.1,11,1,20.9,11.9,23.6
		c9.5,2.3,17.3,0.1,24.7-4.2v-40.1c0-2.4,0-4.3-2-5.7c-1.5-1.2-2.9-1.3-4.8-1.3h-1l0.8-3h16.8c-0.8,1.3-1.1,2.1-1.5,3.5
		c-0.7,2.5-0.4,4-0.4,6.5v37.4c0,3-0.1,5.6,2.7,7.3c1.6,1,2.9,1.2,4.8,1.2h1.2L325.2,164.1z"/>
	<path d="M375.2,125.6c-0.4,1.2-0.6,4.8-0.6,6.2l-0.1,32.3h-5.8c-0.2-1.8-0.8-2.1-1.8-3.5c-0.9-1.2-1.7-2.4-2.7-3.4l-26-26.6v23.2
		c0,2.5,0.4,5.6,0.9,6.1c1,1,2.2,1.3,3.4,1.3l1.9,0.1l-1.1,2.8H330c1-0.8,1.8-1.9,2.2-2.8c1-2.4,0.9-3.5,1-6l0.1-24.1
		c0-1.3,0-4-1.2-5.1c-0.7-0.7-1.7-0.9-3.1-0.9h-1.8l1.3-2.7h13.3c0.7,2.1,2.2,3.5,4.2,5.8l23.7,24.5v-20.8c0-2.4-0.1-4.7-1.2-5.8
		c-0.7-0.7-1.7-1-3.1-1h-1.7l1.1-2.7h12.1C376.1,123.6,375.4,125,375.2,125.6"/>
	<path d="M400.9,164.1h-14.8c0.5-0.7,1.2-1.4,1.5-2.1c0.6-1.4,0.7-2.4,0.7-3.9v-28.7c0-1.3,0-2.3-0.8-3.1c-0.8-0.7-1.6-1.2-2.8-1.2
		H383l1.1-2.7h13.5c-0.8,0.7-1,1.4-1.4,2.1c-0.6,1.1-0.6,3.3-0.6,5.5v27.3c0,1.2,0.3,2.2,0.7,2.7c1,0.9,1.9,1.1,3.6,1.1h2.2
		L400.9,164.1z"/>
	<path d="M444,133.1c-1.8,3.3-3.3,6.6-5.5,11c-3.6,7.1-7.4,15.4-7.5,20.3h-6.1c-0.7-3.8-4.7-13.4-8.5-21.4
		c-2.9-6.5-7.7-14.5-9.2-15.9c-1-1-2.1-1.9-3.6-1.9h-1.7l0.9-2.7l12-0.1l14.6,31.5l10.9-22.9c0.8-1.8,1.2-3.4,0.8-4.2
		c-0.5-1-1.5-1.7-2.9-1.7h-1.9l0.8-2.7h14.6C447.8,126.9,445.9,129.9,444,133.1"/>
</g>
<g>
	<path d="M491.2,164l-33.6,0.1c0.7-0.8,1.4-1.7,1.7-2.7c0.5-1.7,0.4-3.1,0.4-4.9v-24c0-1.3,0-4.7-0.7-5.8c-0.8-1.2-1.6-1.6-3.2-1.6
		h-1.7l1.2-2.7c0,0,33.2-0.1,34.8,0l-1.4,9.1h-4.2c0.2-2.2-0.2-3.5-1.6-4.8c-1.4-1.2-5.8-1.5-10.1-1.5c-2.2,0-3.6,0.1-5.6,0.4v14h19
		c-1.2,2.8-3.6,3.4-6.9,3.8c-1.4,0.1-2.8,0.2-4.4,0.3c-3,0.2-4.8,0.1-7.6,0.1v12.2c0,1.4,0.6,3.1,1.1,3.6c0.9,0.9,4.2,1.2,7.7,1.2
		c3.7,0,6.6,0,9-2.1c1.5-1.3,2.2-2.4,2.6-4.6h4.8L491.2,164z"/>
	<path d="M168.1,205.4c-1.8-12.1-13.7-20.5-30.5-18.5c-16.1,2-25.4,11.7-23.5,24.4c1.8,12.1,13,20.1,29.5,18.2
		C159.9,227.8,169.9,217.5,168.1,205.4 M159.6,205.5c2.1,9.4-3.2,18.8-14.6,20.6c-11.6,1.9-20.7-5.8-22.8-15.3
		c-2-9.4,2.4-19.1,14.1-20.9C148,188.2,157.6,196,159.6,205.5"/>
</g>
<g>
	<path d="M203.2,196.4H199c0-1.9-0.2-3.5-1.7-4.8c-1.3-1.2-5-1.5-8.9-1.5c-2.2,0-3.6,0.1-5.6,0.4v14h18.9c-0.4,1-1.1,2.7-2.4,3.1
		c-1.9,0.7-5.2,0.9-8.7,1c-3,0.1-5,0.2-7.9,0v13.1c0,1.4,0.6,2.8,1.2,3.4c0.5,0.4,1.8,1,3.3,1c0.5,0.1,1.8-0.1,2.3-0.1
		c-0.5,1.5-1,2.9-1,2.9h-15.4c0.7-0.8,1.4-1.7,1.7-2.6c0.5-1.7,0.4-3,0.4-4.8v-24c0-1.3,0.1-5-0.6-6.1c-0.8-1.1-1.9-1.4-3.5-1.4
		h-1.7l1.3-2.7c0,0,32,0.1,33.9,0L203.2,196.4z"/>
</g>
<g>
	<path d="M252.2,228.9h-17.9c0.6-0.8,1.2-1.5,1.5-2.4c0.8-2.1,0.9-3.5,0.9-5.8l0.1-41.6c0-1.8,0-3.4-1.3-4.7
		c-1.1-1.1-2.4-1.6-4.2-1.6h-1.2l1-3h16.1c-0.5,0.7-0.9,1-1.4,2c-0.9,1.9-1.1,5-1.1,8.3v39.5c0,1.7,0.2,3.4,1,4.3
		c1.5,1.5,3.4,1.9,5.7,1.9h2L252.2,228.9z"/>
	<path d="M307.7,205.4c-1.8-12.1-13.7-20.5-30.5-18.5c-16.1,2-25.5,11.7-23.6,24.4c1.8,12.1,13,20.1,29.5,18.2
		C299.5,227.8,309.5,217.5,307.7,205.4 M299.2,205.5c2.1,9.4-3.2,18.8-14.6,20.6c-11.6,1.9-20.7-5.8-22.9-15.3
		c-2-9.4,2.4-19.1,14.1-20.9C287.5,188.2,297.2,196,299.2,205.5"/>
</g>
<g>
	<path d="M372.8,197.8c-1.8,3.2-3.4,6.6-5.5,10.9c-3.6,7.2-6.3,15.5-6.6,20.3h-6.2c-0.7-3.7-4.2-12.1-7.7-20.4
		c-0.5-1.3-1.2-3.2-2-4.7c-1,1.7-1.7,2.8-3.5,6.5c-3.5,7.2-6.1,13.9-6.3,18.7h-6.4c-0.7-3.7-4.7-13.4-8.5-21.3
		c-2.9-6.5-7.7-14.6-9.2-15.9c-1-1-2.1-1.8-3.6-1.8h-1.6l1-2.7h12.2l13.8,31.7c2.1-4.1,9.6-19,9.5-19.2c-1.7-4.1-3.6-7.2-4.4-8
		c-1.1-1-2.1-1.8-3.7-1.8h-1.7l1.1-2.7h12.3c3.8,8.9,9.7,23.2,12.8,31.2l10-21.9c0.8-1.8,1.7-4.2,1.2-5c-0.5-1.1-1.6-1.6-3-1.6h-1.7
		l0.9-2.7h14.6C376.6,191.6,374.6,194.6,372.8,197.8"/>
	<path d="M419.5,226h-1.7c-1.6,0-2.6-0.9-3.7-1.9c-1.4-1.3-5.5-9.7-8.5-16.2c-3.6-8.1-7.5-17.2-8.1-21.1h-10.8
		c2.3,4.3-1.7,12.9-5.5,20.2c-4.3,8.6-6.8,13.6-13.8,21.8h15.3l0.9-2.9h-1.9c-1.4,0-2.6-0.6-3.1-1.6c-0.4-0.8,0.2-2.7,1-4.4l3-6.3
		h11c2.3,0,4.5-0.4,5.9-1.9l7.1,17.2h11.9L419.5,226z M398.5,209.9c-4.7,0.3-9.1,0.2-13.7-0.3l6.9-15.2L398.5,209.9z"/>
	<rect x="-29.3" y="298.5" class="st0" width="205.2" height="180.5"/>
	<path class="st1" d="M107.2,445.8c0-3.8-1-4.5-5.1-4.5H89.7v-105h12.3c4.1,0,5.1-0.6,5.1-4.5v-11.5c0-3.8-1-4.5-5.1-4.5H44.7
		c-4.1,0-5.1,0.6-5.1,4.5v11.5c0,3.8,1,4.5,5.1,4.5H57v105H44.7c-4.1,0-5.1,0.6-5.1,4.5v11.5c0,3.8,1,4.5,5.1,4.5h57.4
		c4.1,0,5.1-0.6,5.1-4.5V445.8z"/>
	<rect x="214.7" y="298.5" class="st2" width="205.2" height="180.5"/>
	<path class="st1" d="M354.7,445.8c0-3.8-1-4.5-5.1-4.5h-16V338.8h17.7v20.5c0,3,0.7,3.6,4.1,3.6h14.3c3.1,0,4.1-0.6,4.1-3.6v-39.8
		c0-3-1-3.6-4.1-3.6H264.9c-3.4,0-4.1,0.6-4.1,3.6v39.8c0,3,0.7,3.6,4.1,3.6h14.3c3.2,0,4.1-0.6,4.1-3.6v-20.5h17.7v102.5h-16
		c-4.1,0-5.1,0.6-5.1,4.5v11.5c0,3.8,1,4.5,5.1,4.5h64.7c4.1,0,5.1-0.6,5.1-4.5V445.8z"/>
	<rect x="458.6" y="298.5" class="st3" width="205.2" height="180.5"/>
	<path class="st1" d="M573.3,445.8c0-3.8-1-4.5-5.1-4.5h-16v-37.9h12.8c25.4,0,55.2-12.3,55.2-47.5c0-40.1-36.8-40.1-56.4-40.1
		h-56.7c-4.1,0-5.1,0.6-5.1,4.5v11.5c0,3.8,1,4.5,5.1,4.5h12.3v105h-12.3c-4.1,0-5.1,0.6-5.1,4.5v11.5c0,3.8,1,4.5,5.1,4.5h61
		c4.1,0,5.1-0.6,5.1-4.5V445.8z M552.3,381v-42.8h9.9c12.6,0,25.4,0.6,25.4,19.2c0,21.5-13.6,23.6-27.8,23.6H552.3z"/>
	<path d="M658.1,534.2c0,0.7,0.2,0.9,1,0.9h5c0.8,0,1-0.2,1-0.9v-6.6c0-2.1-6.3-3-10.1-3c-7.9,0-13,4.7-13,10.5c0,3.8,2.1,6,4.3,7.3
		c4.8,2.8,12.1,2.8,12.1,6.6c0,2.3-2.1,3.2-4.5,3.2c-2.4,0-4.2-0.6-5.2-0.9v-3.2c0-0.9-0.1-1.2-1-1.2h-5c-0.8,0-1,0.2-1,0.9v7
		c0,2.1,8.7,3.7,13,3.7c7.8,0,12.6-4.5,12.6-10.4c0-3.8-2.1-6.2-4.9-7.9c-5.2-3-11.8-2.8-11.8-6.4c0-2.3,2.1-3.2,4.8-3.2
		c1,0,1.9,0.1,2.8,0.2V534.2z M638.6,552.5c0-0.7-0.1-0.9-1-0.9h-3.7v-16.8c0-5.6-1.6-10.2-8.5-10.2c-5.9,0-9,2.8-11.2,4.5
		c-0.9-2.7-4.3-4.5-7.5-4.5c-5.8,0-9,2.8-11.2,4.5c-0.4-1.4-0.6-3.4-2.4-3.4h-10.2c-0.9,0-1,0.2-1,0.9v4.2c0,0.6,0.2,0.9,1,0.9h3.5
		c0.4,1.4,0.7,2.3,0.7,5.5v14.4h-3.8c-0.9,0-1,0.2-1,0.9v4.2c0,0.7,0.1,0.9,1,0.9h16.8c0.9,0,1-0.2,1-0.9v-4.2c0-0.7-0.1-0.9-1-0.9
		h-3.7V534c1-0.8,3.2-2.6,6.3-2.6c2.8,0,3.1,3,3.1,5.4v19.9c0,0.7,0.1,0.9,1,0.9h12.1c0.9,0,1-0.2,1-0.9v-4.2c0-0.7-0.1-0.9-1-0.9
		h-3.8V534c1-0.8,3.2-2.6,6.3-2.6c2.8,0,3.1,3,3.1,5.4v19.9c0,0.7,0.1,0.9,1,0.9h12c0.9,0,1-0.2,1-0.9V552.5z M566.4,550.2
		c-0.9,0.8-2.8,2.5-5.5,2.5c-2.8,0-4.9-1.9-4.9-4.4c0-5.7,8.5-5.2,10.4-5.2V550.2z M575.2,535c0-6.7-3.5-10.4-12.6-10.4
		c-5.7,0-12.9,1.6-12.9,3c0,0.3,0.1,0.5,0.2,0.8l1.5,3.9c0.1,0.3,0.4,0.6,0.7,0.6c0.9,0,5-1.9,9.1-1.9c4.6,0,5.2,1.9,5.2,4.8v2
		c-5.8,0-19.2,0-19.2,10.9c0,6.1,4.2,9.9,11,9.9c5.4,0,8-2.6,9.5-3.9c0.3,1.2,0.4,2.8,2.2,2.8h9.2c0.9,0,1-0.2,1-0.9v-4.2
		c0-0.7-0.2-0.9-1-0.9h-3.1c-0.4-1.3-0.7-2.4-0.7-5.4V535z M540.2,552.5c0-0.7-0.1-0.9-1-0.9h-4v-16.5c1-0.9,3.3-3.1,5.6-3.1
		c1.7,0,3,0.7,3.4,0.7c0.3,0,0.5-0.4,0.6-0.6l2.2-5.4c0.1-0.1,0.2-0.4,0.2-0.6c0-0.8-2.1-1.5-4.3-1.5c-5,0-7.7,3.6-9.1,5.1
		c-0.5-1.6-0.8-4-2.7-4h-9.5c-0.9,0-1,0.2-1,0.9v4.2c0,0.7,0.1,0.9,1,0.9h3.5c0.4,1.4,0.7,2.3,0.7,5.5v14.4h-3.7c-0.9,0-1,0.2-1,0.9
		v4.2c0,0.7,0.2,0.9,1,0.9h17c0.9,0,1-0.2,1-0.9V552.5z M505.8,548.6c-0.7,0.6-2.5,2.2-6.3,2.2c-4.4,0-5.9-3.7-5.9-9.6
		c0-6.2,1.9-9.8,6.3-9.8c3.3,0,4.9,1.3,5.8,1.9V548.6z M514.6,535.5c0-5.1,2.1-7.4,2.1-8.3c0-0.3-0.4-0.4-0.7-0.6l-5.7-1.9
		c-0.2-0.1-0.5-0.1-0.7-0.1c-1,0-2.4,2.5-2.6,3c-1.4-1-3.5-3-8.8-3c-8.7,0-13.9,6.5-13.9,16.9c0,9.7,4.3,15.8,12.6,15.8
		c5,0,7.8-1.8,8.9-2.5c0,0.4,0.2,2,0.2,4.3c0,3.6-0.9,5.5-6,5.5c-6.6,0-11-2.5-11.9-2.5c-0.4,0-0.6,0.2-0.8,0.6l-1.4,3.9
		c-0.2,0.6-0.3,0.8-0.3,1.3c0,1.4,9.5,3.4,15.2,3.4c10.2,0,14.2-4.6,14.2-11.7c0-3.6-0.4-10.3-0.4-14.5V535.5z M479.9,541.7
		c0-10.4-6.1-17-15.9-17c-9.9,0-15.9,6.6-15.9,17c0,10.4,6,17,15.9,17C473.9,558.7,479.9,552.1,479.9,541.7 M463.9,552.3
		c-5.1,0-6-4.6-6-10.6c0-6,0.9-10.6,6-10.6c5.1,0,6,4.6,6,10.6C470,547.7,469.1,552.3,463.9,552.3 M440.9,552.5c0-0.7-0.1-0.9-1-0.9
		h-4v-16.5c0.9-0.9,3.3-3.1,5.6-3.1c1.7,0,3,0.7,3.5,0.7c0.3,0,0.5-0.4,0.6-0.6l2.3-5.4c0.1-0.1,0.1-0.4,0.1-0.6
		c0-0.8-2.1-1.5-4.3-1.5c-5,0-7.7,3.6-9.1,5.1c-0.5-1.6-0.8-4-2.7-4h-9.5c-0.9,0-1,0.2-1,0.9v4.2c0,0.7,0.1,0.9,1,0.9h3.5
		c0.4,1.4,0.7,2.3,0.7,5.5v14.4h-3.7c-0.9,0-1,0.2-1,0.9v4.2c0,0.7,0.1,0.9,1,0.9h17.1c0.9,0,1-0.2,1-0.9V552.5z M403.7,552.8
		c0-1.2-0.3-1.4-1.5-1.4h-4.8v-11.5h3.9c7.7,0,16.7-3.7,16.7-14.4c0-12.1-11.1-12.1-17.1-12.1h-17.2c-1.2,0-1.5,0.2-1.5,1.4v3.5
		c0,1.2,0.3,1.3,1.5,1.3h3.7v31.9h-3.7c-1.2,0-1.5,0.2-1.5,1.4v3.5c0,1.2,0.3,1.4,1.5,1.4h18.5c1.3,0,1.5-0.2,1.5-1.4V552.8z
		 M397.3,533.1v-13h3c3.8,0,7.7,0.2,7.7,5.8c0,6.5-4.1,7.2-8.4,7.2H397.3z M347.5,548.6c-0.7,0.6-2.5,2.2-6.3,2.2
		c-4.4,0-5.9-3.7-5.9-9.6c0-6.2,1.9-9.8,6.3-9.8c3.3,0,4.9,1.3,5.8,1.9V548.6z M356.3,535.5c0-5.1,2.1-7.4,2.1-8.3
		c0-0.3-0.4-0.4-0.7-0.6l-5.7-1.9c-0.2-0.1-0.5-0.1-0.7-0.1c-1,0-2.4,2.5-2.6,3c-1.4-1-3.5-3-8.7-3c-8.7,0-13.9,6.5-13.9,16.9
		c0,9.7,4.3,15.8,12.5,15.8c5,0,7.8-1.8,8.9-2.5c0,0.4,0.2,2,0.2,4.3c0,3.6-0.9,5.5-6,5.5c-6.5,0-11-2.5-11.9-2.5
		c-0.4,0-0.7,0.2-0.8,0.6l-1.4,3.9c-0.2,0.6-0.3,0.8-0.3,1.3c0,1.4,9.5,3.4,15.2,3.4c10.2,0,14.2-4.6,14.2-11.7
		c0-3.6-0.4-10.3-0.4-14.5V535.5z M323.1,552.5c0-0.7-0.2-0.9-1-0.9h-3.7v-16.8c0-5.6-1.8-10.2-9.5-10.2c-5.8,0-9,2.8-11.2,4.5
		c-0.5-1.4-0.6-3.4-2.4-3.4h-10.2c-0.9,0-1,0.2-1,0.9v4.2c0,0.6,0.2,0.9,1,0.9h3.5c0.5,1.4,0.7,2.3,0.7,5.5v14.4h-3.7
		c-0.9,0-1,0.2-1,0.9v4.2c0,0.7,0.1,0.9,1,0.9h16.8c0.9,0,1-0.2,1-0.9v-4.2c0-0.7-0.1-0.9-1-0.9h-3.8V534c0.9-0.8,3.2-2.6,6.3-2.6
		c3.8,0,4.1,3,4.1,5.4v19.9c0,0.7,0.1,0.9,1,0.9H322c0.9,0,1-0.2,1-0.9V552.5z M277.2,516.1c0-3-2.7-5.3-6-5.3
		c-3.4,0-6.1,2.3-6.1,5.3c0,3,2.7,5.4,6.1,5.4C274.5,521.5,277.2,519.1,277.2,516.1 M281.6,552.5c0-0.7-0.1-0.9-1-0.9h-4.7v-25
		c0-0.7-0.1-0.9-1-0.9h-13.1c-0.9,0-1,0.2-1,0.9v4.2c0,0.7,0.1,0.9,1,0.9h4.8v19.9h-4.7c-0.9,0-1,0.2-1,0.9v4.2c0,0.7,0.1,0.9,1,0.9
		h18.7c0.9,0,1-0.2,1-0.9V552.5z M249.2,531.7h7.1c0.7,0,1.2-0.1,1.4-0.9l1-3.8c0.1-0.3,0.1-0.4,0.1-0.6c0-0.5-0.6-0.6-1.3-0.6h-8.4
		v-9c0-0.8-0.1-1.1-0.7-1.1c-0.4,0-0.7,0.1-1,0.1l-6.5,0.8c-1,0.1-1.2,0.3-1.2,1.2v8.1h-5.2c-0.9,0-1.1,0.2-1.1,0.9v4.2
		c0,0.7,0.2,0.9,1.1,0.9h5.2v14.5c0,5.9,0,12.5,9.5,12.5c5,0,10.3-1.2,10.3-2.4c0-0.2-0.1-0.4-0.1-0.6l-1.5-5.3
		c-0.1-0.2-0.3-0.4-0.6-0.4c-1,0-2.9,1.2-5.8,1.2c-2.5,0-2.5-1.9-2.5-3.9V531.7z M223.4,534.2c0,0.7,0.2,0.9,1,0.9h5
		c0.8,0,1-0.2,1-0.9v-6.6c0-2.1-6.3-3-10.1-3c-8,0-13,4.7-13,10.5c0,3.8,2.1,6,4.3,7.3c4.9,2.8,12.1,2.8,12.1,6.6
		c0,2.3-2.1,3.2-4.5,3.2c-2.3,0-4.2-0.6-5.2-0.9v-3.2c0-0.9-0.1-1.2-1-1.2h-5c-0.8,0-1,0.2-1,0.9v7c0,2.1,8.6,3.7,13,3.7
		c7.8,0,12.6-4.5,12.6-10.4c0-3.8-2.1-6.2-4.9-7.9c-5.2-3-11.8-2.8-11.8-6.4c0-2.3,2.1-3.2,4.9-3.2c1,0,1.9,0.1,2.8,0.2V534.2z
		 M181.6,537.8c0.2-1.8,0.5-7.2,6.2-7.2c5.1,0,5.3,4.6,5.3,7.2H181.6z M201.4,543.8c1.4,0,1.7-0.4,1.7-1.6c0-7.8-2.2-17.6-14.7-17.6
		c-9.8,0-16.1,7.1-16.1,17.4c0,11.9,6.8,16.7,16.4,16.7c5.8,0,13.1-2.1,13.1-3.8c0-0.3-0.1-0.5-0.2-0.7l-1.8-3.9
		c-0.1-0.3-0.4-0.5-0.8-0.5c-1,0-4,2.1-9.3,2.1c-6.9,0-8.1-4.5-8.1-8.1H201.4z M167.3,552.8c0-1.2-0.3-1.4-1.5-1.4h-4.9v-31.1h5.4
		v6.2c0,0.9,0.2,1.1,1.3,1.1h4.3c1,0,1.2-0.2,1.2-1.1v-12.1c0-0.9-0.3-1.1-1.2-1.1h-31.8c-1,0-1.2,0.2-1.2,1.1v12.1
		c0,0.9,0.2,1.1,1.2,1.1h4.3c1,0,1.3-0.2,1.3-1.1v-6.2h5.4v31.1h-4.9c-1.2,0-1.5,0.2-1.5,1.4v3.5c0,1.2,0.3,1.4,1.5,1.4h19.6
		c1.2,0,1.5-0.2,1.5-1.4V552.8z M104,550.2c-0.9,0.8-2.8,2.5-5.5,2.5c-2.8,0-4.8-1.9-4.8-4.4c0-5.7,8.5-5.2,10.4-5.2V550.2z
		 M112.8,535c0-6.7-3.5-10.4-12.6-10.4c-5.6,0-12.9,1.6-12.9,3c0,0.3,0.1,0.5,0.2,0.8l1.5,3.9c0.1,0.3,0.4,0.6,0.7,0.6
		c1,0,5-1.9,9.1-1.9c4.6,0,5.2,1.9,5.2,4.8v2c-5.8,0-19.2,0-19.2,10.9c0,6.1,4.3,9.9,11,9.9c5.4,0,8-2.6,9.5-3.9
		c0.3,1.2,0.4,2.8,2.2,2.8h9.2c0.9,0,1-0.2,1-0.9v-4.2c0-0.7-0.2-0.9-1-0.9h-3.1c-0.4-1.3-0.7-2.4-0.7-5.4V535z M80.7,531.7h2.3
		c0.9,0,1-0.2,1-0.9v-4.2c0-0.7-0.1-0.9-1-0.9H75c-1,0-1.1,0.2-1.3,1l-3.6,13.7c-0.8,3.1-1.2,7.4-1.6,10.9h-0.1
		c-0.1-2.4-0.9-7.8-1.4-10.1l-3.2-14.5c-0.2-1-0.3-1-1.4-1h-6.5c-1.1,0-1.2,0.1-1.4,1l-3.4,14.5c-0.5,2.4-1.3,7.6-1.4,10.1h-0.2
		c-0.4-3.5-0.8-7.8-1.6-10.9l-3.2-13.7c-0.2-0.8-0.4-1-1.3-1h-8.8c-0.9,0-1,0.2-1,0.9v4.2c0,0.7,0.1,0.9,1,0.9h2.4l7.7,26.1
		c0.3,0.8,0.4,0.9,1.4,0.9h5.7c1,0,1.2-0.4,1.3-1l4.4-16.9c0.4-2.1,1.2-5.4,1.3-7.2h0.2c0.1,1.8,0.5,5.2,1,7.2l3.6,16.9
		c0.2,0.6,0.4,1,1.3,1h5.7c1,0,1.1-0.1,1.4-0.9L80.7,531.7z M32,541.7c0-10.4-6.1-17-15.9-17c-9.9,0-15.9,6.6-15.9,17
		c0,10.4,6,17,15.9,17C26,558.7,32,552.1,32,541.7 M16,552.3c-5.1,0-6-4.6-6-10.6c0-6,0.9-10.6,6-10.6s6,4.6,6,10.6
		C22.1,547.7,21.2,552.3,16,552.3 M-4.5,552.8c0-1.2-0.3-1.4-1.5-1.4h-3.7v-31.9h3.7c1.2,0,1.5-0.2,1.5-1.3v-3.5
		c0-1.2-0.3-1.4-1.5-1.4h-17.4c-1.3,0-1.5,0.2-1.5,1.4v3.5c0,1.2,0.3,1.3,1.5,1.3h3.8v31.9h-3.8c-1.3,0-1.5,0.2-1.5,1.4v3.5
		c0,1.2,0.3,1.4,1.5,1.4h17.4c1.2,0,1.5-0.2,1.5-1.4V552.8z"/>
</g>
</svg>
