<?xml version="1.0" encoding="utf-8"?>
<!-- Generator: Adobe Illustrator 19.0.0, SVG Export Plug-In . SVG Version: 6.00 Build 0)  -->
<svg version="1.1" id="layer" xmlns="http://www.w3.org/2000/svg" xmlns:xlink="http://www.w3.org/1999/xlink" x="0px" y="0px"
	 viewBox="-153 -46 652 652" style="enable-background:new -153 -46 652 652;" xml:space="preserve">
<title>epfl-logo-new</title>
<path id="MC-Logo" d="M-71.6,402.3c0.5,0.9-0.5,1.9-1.4,1.9h-3.3c-0.5,0-1.4-0.5-1.4-0.9l-7-40.2h-0.5l-14.5,41.1
	c0,0.5-0.9,0.9-1.4,0.9h-1.4c-0.5,0-1.4-0.5-1.4-0.9l-14.5-41.1h0l-7,40.2c0,0.5-0.9,0.9-1.4,0.9h-2.8c-1.4,0-1.9-0.9-1.4-1.9
	l10.3-52.3c0-0.5,0.9-0.9,1.4-0.9h1.4c0.5,0,0.9,0.5,0.9,0.9l15.4,43h0.5l15.4-43c0-0.5,0.9-0.9,1.4-0.9h1.4c0.5,0,1.4,0.5,1.4,0.9
	L-71.6,402.3L-71.6,402.3z M-5.8,402.3c0.5,0.9,0,1.9-1.4,1.9h-3.3c-0.9,0-1.4-0.5-1.4-0.9l-5.6-12.6H-45l-5.6,12.6
	c0,0.5-0.5,0.9-1.4,0.9h-3.3c-1.4,0-1.9-0.9-1.4-1.9l23.8-52.3c0.5-0.5,0.5-0.9,1.4-0.9h0.5c0.9,0,0.9,0.5,1.4,0.9L-5.8,402.3
	L-5.8,402.3z M-19.3,386c-3.7-8.4-7.5-16.8-11.2-25.7H-31L-42.2,386H-19.3L-19.3,386z M23.2,373.8c-6.5-2.8-10.7-5.6-10.7-11.2
	c0-3.3,2.3-8.4,10.7-8.4c4.7,0,9.8,3.3,10.3,3.7c1.4,0.9,1.9,0.5,2.8-0.9c0.5-0.5,0.5-0.9,0.9-1.4c0.9-1.4,0-2.3-0.5-2.8
	c0,0-5.6-3.7-13.5-3.7c-12.6,0-16.8,8.4-16.8,14c0,8.9,5.1,12.1,13.5,16.3c8.9,3.7,13.5,7,13.5,12.1c0,4.7-4.2,8.4-10.3,8.4
	c-7,0-12.6-5.6-13.1-6.1c-0.9-0.9-1.9-0.5-2.8,0.9c-0.5,0.5-0.9,0.9-1.4,1.4c-0.9,1.4,0,2.3,0.5,2.8c0.9,0.9,7,6.5,16.3,6.5
	s16.8-6.1,16.8-14C41,382.2,34,378,23.2,373.8L23.2,373.8z M87.2,350H54c-0.9,0-1.4,0.9-1.4,1.4v2.3c0,0.9,0.5,1.4,1.4,1.4h13.5
	v47.6c0,0.9,0.9,1.4,1.4,1.4h2.8c0.9,0,1.4-0.9,1.4-1.4v-47.6h13.5c0.9,0,1.4-0.9,1.4-1.4v-2.3C88.6,350.5,88.1,350,87.2,350
	L87.2,350z M137.2,350h-30.8c-0.9,0-1.4,0.9-1.4,1.4v51.4c0,0.9,0.5,1.4,1.4,1.4h30.8c0.9,0,1.4-0.9,1.4-1.4v-2.3
	c0-0.9-0.5-1.4-1.4-1.4H111V379h22.4c0.9,0,1.4-0.5,1.4-1.4v-2.3c0-0.9-0.9-1.4-1.4-1.4H111v-19.2h26.2c0.9,0,1.4-0.9,1.4-1.4V351
	C139,350.5,138.1,350,137.2,350L137.2,350z M186.2,382.2l10.7,19.6c0.5,0.9,0,2.3-1.4,2.3h-3.7c-0.9,0-0.9-0.5-1.4-0.9l-10.3-20.6
	h-14.9v20.1c0,0.9-0.9,1.4-1.4,1.4H161c-0.9,0-1.4-0.9-1.4-1.4v-51.4c0-0.9,0.5-1.4,1.4-1.4h20.1c9.3,0,17.3,7.5,17.3,16.3
	C197.9,373.4,193.2,379.4,186.2,382.2L186.2,382.2z M191.8,366.4c0-6.1-5.1-11.2-11.2-11.2h-14.9V378h14.9
	C186.7,378,191.8,372.9,191.8,366.4L191.8,366.4z M259.6,393.5c-0.5-0.5-0.9-0.5-1.9,0.5c-4.2,3.3-8.4,6.1-14.9,6.1
	c-12.6,0-22-10.3-22-22.4s9.3-22.4,22-22.4c5.1,0,10.7,2.3,14.9,6.1c0.9,0.9,1.4,0.9,1.9,0l2.3-2.3c0.5-0.5,0.5-1.4,0-2.3
	c-5.1-4.7-11.2-7-18.7-7c-15.4,0-28,12.6-28,28s12.6,28,28,28c7,0,13.5-2.3,19.2-7.5c0.5-0.5,0.9-1.9,0-2.3L259.6,393.5L259.6,393.5
	z M310,399.1h-22.4v-47.6c0-0.9-0.9-1.4-1.4-1.4h-2.8c-0.9,0-1.4,0.9-1.4,1.4v51.4c0,0.9,0.5,1.4,1.4,1.4h27.1
	c0.9,0,1.4-0.9,1.4-1.4v-2.3C311.9,400,310.9,399.1,310,399.1L310,399.1z M373.5,402.3c0.5,0.9,0,1.9-1.4,1.9h-3.3
	c-0.9,0-1.4-0.5-1.4-0.9l-5.6-12.6h-27.6l-5.6,12.6c0,0.5-0.5,0.9-1.4,0.9H324c-1.4,0-1.9-0.9-1.4-1.9l23.8-52.3
	c0.5-0.5,0.5-0.9,1.4-0.9h0.9c0.9,0,0.9,0.5,1.4,0.9L373.5,402.3L373.5,402.3z M360,386c-3.7-8.4-7.5-16.8-11.2-25.7h-0.5L337.1,386
	H360L360,386z M403,373.8c-6.5-2.8-10.7-5.6-10.7-11.2c0-3.3,2.3-8.4,10.7-8.4c4.7,0,9.8,3.3,10.3,3.7c1.4,0.9,1.9,0.5,2.8-0.9
	c0.5-0.5,0.5-0.9,0.9-1.4c0.9-1.4,0-2.3-0.5-2.8c0,0-5.6-3.7-13.5-3.7c-12.6,0-16.8,8.4-16.8,14c0,8.9,5.1,12.1,13.5,16.3
	c8.9,3.7,13.5,7,13.5,12.1c0,4.7-4.2,8.4-10.3,8.4c-7,0-12.6-5.6-13.1-6.1c-0.9-0.9-1.9-0.5-2.8,0.9c-0.5,0.5-0.9,0.9-1.4,1.4
	c-0.9,1.4,0,2.3,0.5,2.8c0.9,0.9,7,6.5,16.3,6.5s16.8-6.1,16.8-14C420.2,382.2,413.7,378,403,373.8L403,373.8z M452.5,373.8
	c-6.5-2.8-10.7-5.6-10.7-11.2c0-3.3,2.3-8.4,10.7-8.4c4.7,0,9.8,3.3,10.3,3.7c1.4,0.9,1.9,0.5,2.8-0.9c0.5-0.5,0.5-0.9,0.9-1.4
	c0.9-1.4,0-2.3-0.5-2.8c0,0-5.6-3.7-13.5-3.7c-12.6,0-16.8,8.4-16.8,14c0,8.9,5.1,12.1,13.5,16.3c8.9,3.7,13.5,7,13.5,12.1
	c0,4.7-4.2,8.4-10.3,8.4c-7,0-12.6-5.6-13.1-6.1c-0.9-0.9-1.9-0.5-2.8,0.9c-0.5,0.5-0.9,0.9-1.4,1.4c-0.9,1.4,0,2.3,0.5,2.8
	c0.9,0.9,7,6.5,16.3,6.5s16.8-6.1,16.8-14C469.7,382.2,462.7,378,452.5,373.8z M190.9,269.7l-1.4,2.8l-16.8-3.7l-16.8,3.7l-1.4-2.8
	l18.2-3.7L190.9,269.7z M93.3,265l35-18.7l0.5-3.7l-35,18.7L93.3,265z M172.7,287.9l-8.4,0.5l1.4,2.8l7-0.5l7,0.5l1.4-2.8
	L172.7,287.9z M94.2,259.4l35.5-21l0.5-3.7l-35,21L94.2,259.4z M158.2,275.7l1.4,2.8l13.5-2.3l13.5,2.3l1.4-2.8l-14.9-2.3
	L158.2,275.7z M168,294.4c0.9,0.9,1.9,2.3,5.1,2.3c3.3,0,4.2-1.4,5.1-2.3H168z M172.7,280.9l-11.7,1.4l1.4,2.8l10.3-0.9l10.3,0.9
	l1.4-2.8L172.7,280.9z M92.3,270.1l35-15.9l0.5-3.3l-34.6,15.9L92.3,270.1z M93.3,294H118c1.9,0,3.7-1.4,3.7-3.3L90,292.6
	C90.9,293.5,91.9,294,93.3,294z M123.6,146.4c-0.5-0.5-0.9-0.9-1.4-1.4l-12.1,18.2l-1.4,7.9l15.4-23.4L123.6,146.4z M91.4,274.8
	l34.6-13.5l0.5-3.3l-34.6,13.5L91.4,274.8z M90,292.6l32.2-3.3l0.5-2.8l-33.6,3.7C89.1,291.2,89.5,292.1,90,292.6z M90.9,279
	l34.6-11.2l0.5-3.3l-34.6,11.2L90.9,279z M89.1,289.3v0.5l33.6-5.6l0.5-2.8L89.5,287L89.1,289.3z M90,282.8l34.1-9.3l0.5-3.3
	l-34.1,9.3L90,282.8z M89.5,286.5l34.1-7.5l0.5-3.3L90,283.2L89.5,286.5z M139.5,176.3l-38.3,40.2l-0.9,5.6l40.6-42.5L139.5,176.3z
	 M135.3,168.3l-32.2,36.9l-0.9,6.1l35-40.2L135.3,168.3z M144.2,184.2l-44.4,41.6l-0.9,5.1l46.7-43.9L144.2,184.2z M131.1,160.8
	l-26.2,32.7l-0.9,6.5l29-36.4L131.1,160.8z M148.4,192.1l-50,42.5l-0.9,4.7l52.3-44.4L148.4,192.1z M116.6,144.5
	c-1.9,0-3.7,1.4-3.7,3.3l-0.9,6.5l5.6-9.8H116.6z M126.9,152.9l-19.6,26.6l-0.9,7l22.4-30.8L126.9,152.9z M152.6,200.1l-55.6,42
	l-0.9,4.7l57.9-43.9L152.6,200.1z M169.4,231.4l-28,12.6l1.4,2.8l28-12.6L169.4,231.4z M172.7,239.8l-28,10.7l1.4,2.8l26.6-10.3
	l26.6,10.3l1.4-2.8L172.7,239.8z M148.4,257.1l1.4,2.8l23.4-7.5l23.4,7.5l1.4-2.8l-25.2-8.4L148.4,257.1z M156.8,208l-60.7,41.1
	l-0.9,4.2l63.1-43L156.8,208z M165.2,223.9l-27.1,14l1.4,2.8l27.1-14.5L165.2,223.9z M172.7,257.5l-21.5,5.6l1.4,2.8l20.1-5.6
	l20.1,5.6l1.4-2.8L172.7,257.5z M161,216l-26.2,15.9l1.4,2.8l26.2-15.9L161,216z M251.6,261.3l-35-18.7l0.5,3.7l35,18.7L251.6,261.3
	z M250.7,255.7l-35-21l0.5,3.7l35.5,21L250.7,255.7z M252.5,266.4L218,250.5l0.5,3.3l35,15.9L252.5,266.4z M227.8,294h24.8
	c1.4,0,2.3-0.5,2.8-0.9l-31.8-1.9C224.1,292.6,225.5,294,227.8,294z M235.3,163.6l-12.1-18.2c-0.5,0.5-0.9,0.9-1.4,1.4l-0.9,1.4
	l15.4,23.4L235.3,163.6z M253.5,271.1l-34.6-13.5l0.5,3.7l34.6,13.5L253.5,271.1z M223.1,286.5l0.5,2.8l32.2,3.3
	c0.9-0.9,0.9-1.4,0.9-2.8L223.1,286.5z M254.4,275.7l-34.1-11.2l0.5,3.3l34.6,11.2L254.4,275.7z M256.8,289.3l-0.5-2.3l-33.6-5.6
	l0.5,2.8l33.6,5.6V289.3z M254.9,279.5l-34.1-9.3l0.5,3.3l34.1,9.3L254.9,279.5z M255.4,283.2l-34.1-7.5l0.5,3.3l34.1,7.5
	L255.4,283.2z M244.1,216.4l-38.3-40.2l-1.4,2.8l40.6,42.5L244.1,216.4z M242.3,205.7L210,168.3l-1.4,2.8l35,40.2L242.3,205.7z
	 M246,226.2l-44.4-41.6l-1.4,2.8l46.7,43.9L246,226.2z M240.4,193.5l-26.2-32.7l-1.4,3.3l29,36.4L240.4,193.5z M247.4,234.6
	l-50-42.5l-1.4,2.8l52.3,44.4L247.4,234.6z M232.5,147.8c0-1.9-1.9-3.3-3.7-3.3h-0.9l5.6,9.8L232.5,147.8z M238.1,179.5l-19.6-26.6
	l-1.9,3.3L239,187L238.1,179.5z M248.8,242.1l-55.6-42l-1.4,2.8l57.9,43.9L248.8,242.1z M174.5,234.2l28,12.6l1.4-2.8l-28-12.6
	L174.5,234.2z M249.7,249.1L189,208l-1.4,2.8l63.1,43L249.7,249.1z M178.7,226.2l27.1,14.5l1.4-2.8l-26.6-14L178.7,226.2z
	 M183.4,218.3l26.2,15.9l1.4-2.8l-26.2-15.9L183.4,218.3z"/>
</svg>
