<?xml version="1.0" encoding="utf-8"?>
<!-- Generator: Adobe Illustrator 19.2.1, SVG Export Plug-In . SVG Version: 6.00 Build 0)  -->
<svg version="1.1" id="layer" xmlns="http://www.w3.org/2000/svg" xmlns:xlink="http://www.w3.org/1999/xlink" x="0px" y="0px"
	 viewBox="0 0 652 652" style="enable-background:new 0 0 652 652;" xml:space="preserve">
<style type="text/css">
	.st0{fill:#001B38;}
	.st1{fill:#007FB5;}
</style>
<g>
	<path class="st0" d="M0,436.7c-0.8,0.2-0.6-1.7,0-1.8c7.4-0.7,8.1-1,7.8-15.2l-0.6-34.2l-22.4,51c-0.2,0.4-1.4,0.6-1.8-0.1
		l-22.9-48.2l-0.5,31.4c-0.3,12.6-0.3,14.4,8.7,15.2c0.3,0,0.6,2-0.2,1.8c-3-0.3-5.6-0.6-9.7-0.6c-5.5,0-8.2,0-12.4,0.6
		c-0.7,0.2-0.4-1.7,0-1.8c8.6-1,9-1.8,9.3-15.2l0.7-33.8c0-6.6-3.5-9.7-10.8-10.5c-0.5-0.1-0.8-1.9,0-1.7c4.8,0.6,9.3,0.6,17.6,0.6
		l23,49.3L0,391.9c2.7-6.4,5.5-12.6,6.8-17.7c6.3,0.5,13.6,0.2,18.2-0.5c0.9-0.1,0.5,1.7,0.2,1.7c-10,0.8-9.9,1.4-9.7,15.3l0.6,29
		c0.3,13.9,0,14.3,10.1,15.2c0.3,0,0.6,2-0.1,1.8c-3-0.3-8.7-0.6-12.8-0.6C7.8,436.1,4.2,436.1,0,436.7"/>
	<path class="st0" d="M34.6,406.2c0-16,15-33.8,36.2-33.8c20.5,0,34.5,15.2,34.5,31.7c0,16.1-15,33.9-36.4,33.9
		C48.5,438.1,34.6,422.8,34.6,406.2 M43.5,403.1c0,21.2,14.1,32,27.7,32c14.4,0,25.1-10.2,25.1-27.6c0-21.1-14.3-32.1-27.8-32.1
		C54.2,375.4,43.5,385.7,43.5,403.1"/>
	<path class="st0" d="M176.2,414.1c0,13-8.8,24-25.9,24c-14.8,0-26.6-9.2-26.6-24.7v-22.5c0-14.5-0.4-14.5-8.9-15.4
		c-0.7,0-1-1.7,0-1.6c4.1,0.4,8.6,0.5,14.1,0.5c4.1,0,9.1-0.2,12-0.5c1.1-0.1,0.4,1.6,0.2,1.6c-9,0.8-9,1.5-9,15.4v20.6
		c0,15.3,10.8,21.9,20.7,21.9c11.5,0,19-7.7,19-20.3V390c0-12.2-0.9-13.6-9.4-14.5c-0.4-0.1-0.9-1.7,0.1-1.6
		c4.1,0.4,7.5,0.5,13.1,0.5c4.1,0,6.8-0.2,9.8-0.5c1-0.1,0.7,1.6,0.2,1.6c-8.9,0.8-9.4,2.9-9.4,14.5V414.1z"/>
	<path class="st0" d="M260.7,419.7c0,4.8,0.1,13.6,0.6,17.6l-1.8,0.1l-47.5-49.6v31.9c0,12.8,0,14.5,8.9,15.2c0.4,0,0.8,1.9-0.2,1.8
		c-3-0.3-5.6-0.6-9.6-0.6c-5.7,0-8.6,0.2-12.7,0.6c-0.9,0.1-0.3-1.8-0.1-1.8c8.5-0.9,9-1.8,9-15.2v-33.8c0-4.3-6.3-9.9-10.8-10.5
		c-0.2,0-0.8-1.7,0.2-1.6c4,0.4,8.4,0.7,14.1,0.7l45.1,47.4v-31c0-13.5-0.3-14.5-9-15.4c-0.3,0-0.7-1.8,0-1.6
		c4.1,0.4,7,0.5,12.6,0.5c4.2,0,6.8-0.2,9.7-0.5c1-0.1,0.8,1.5,0.1,1.6c-8.8,0.8-8.8,2.5-8.8,15.4V419.7z"/>
	<path class="st0" d="M344.4,384.7l-1.7,0.1c-0.8-4.2-2.4-6.4-15-6.4h-10.1v41.3c0,13.9,0,14.5,9,15.2c0.4,0,0.7,1.9-0.2,1.8
		c-3.1-0.3-7.9-0.6-11.9-0.6c-5.7,0-10.1,0.2-14.3,0.6c-0.8,0.2-0.5-1.7,0-1.8c8.5-0.9,8.9-0.7,8.9-15.2v-41.3h-10.6
		c-12.2,0-14.2,2.1-15.4,6.5l-1.6-0.2c0.4-1.9,0.4-5.4,0.4-8.2c0-1.7-0.2-3.6-0.4-4.9l1.7-0.2c0.7,3.2,1.3,3.4,15.3,3.4h29.2
		c14,0,14.9-0.1,15.6-3.4l1.6,0.2c-0.4,2.2-0.7,4.6-0.7,7.9C344.2,381.1,344.2,383.6,344.4,384.7"/>
	<path class="st0" d="M413.2,408c-2.5,0.3-5.6,0.5-7.6,0.5c-2,0-2.4,0-3.8-0.2v11.4c0,13.9,0,14.5,9,15.2c0.2,0,0.7,1.9-0.2,1.8
		c-3-0.3-7.7-0.6-11.9-0.6c-5.6,0-10.1,0.2-14.2,0.6c-0.8,0.2-0.4-1.8-0.1-1.8c8.7-0.9,9-0.7,9-15.2v-29c0-10.8-0.2-14.2-5.6-14.2
		c-1.1,0-2.3,0.2-3.6,0.4c-0.5,0-1.1-1.4-0.2-1.7c4-1.3,13.5-1.6,24.2-1.6c14,0,25.6,4.3,25.6,15c0,5.4-3.5,13.3-13.6,17.4
		c5.3,13.9,20.3,30.5,31.1,30.5c0.4,0,0.8,1.9-0.1,1.9C428.7,438.3,417.4,423.2,413.2,408 M402.6,376.4c-0.5,2.1-0.7,6.5-0.7,13.5
		v15.9c1.4,0.1,2,0,3.6,0c14.5,0,19.5-5.1,19.5-13.2c0-13-8.7-16.4-18.2-16.4C405.3,376.3,404.2,376.3,402.6,376.4"/>
	<path class="st0" d="M452.1,406.2c0-16,14.9-33.8,36.1-33.8c20.5,0,34.6,15.2,34.6,31.7c0,16.1-15.1,33.9-36.4,33.9
		C466.1,438.1,452.1,422.8,452.1,406.2 M461.1,403.1c0,21.2,14.1,32,27.6,32c14.4,0,25.2-10.2,25.2-27.6c0-21.1-14.3-32.1-27.8-32.1
		C471.6,375.4,461.1,385.7,461.1,403.1"/>
	<path class="st0" d="M562.4,405.6v14.1c0,13.7,0,14.5,9,15.2c0.3,0,0.8,1.9-0.2,1.8c-3-0.3-7.7-0.6-11.9-0.6
		c-5.6,0-10.1,0.2-14.2,0.6c-0.7,0.2-0.4-1.8-0.1-1.8c8.7-1,9.1-0.7,9.1-15.2v-13.3l-8.6-13.3c-9.4-14.4-11.7-16.8-19.9-17.6
		c-0.5-0.1-0.8-1.8,0-1.6c4.1,0.4,8.6,0.5,14.1,0.5c4.1,0,8.8-0.2,11.8-0.5c1-0.1,0.5,1.6,0.2,1.6c-8.5,0.8-6.4,3.6,2.8,17.3
		l5.7,8.4l7.6-10.7c9.4-13.4,10.2-14.1,2.3-15.1c-0.4-0.1-0.8-1.8,0-1.6c4.1,0.4,7.8,0.5,13.4,0.5c4,0,5.6-0.2,8.7-0.5
		c1-0.1,0.6,1.6,0.1,1.6c-8.2,0.7-10,2.8-19.2,15.5L562.4,405.6z"/>
	<path class="st0" d="M639.3,436.1c-5.6,0-10.7,0.2-14.7,0.6c-0.7,0.2-0.4-1.8-0.1-1.8c4.4-0.5,6.7-0.4,6.7-3
		c0-2.9-1.9-7.3-3.7-12.1l-2.7-7h-22.5l-3,7c-2.5,5.7-4.1,9.4-4.1,12.1c0,2.3,1.8,2.6,6.1,3c0.4,0,0.6,2-0.1,1.8
		c-3-0.3-5.2-0.6-9.3-0.6c-5.6,0-5.7,0.2-9.8,0.6c-0.7,0.2-0.3-1.8-0.1-1.8c6.6-0.5,9-4.5,13.8-15.2l20.8-46.5
		c0.3-0.8,1.7-0.6,1.9,0l17.7,46.5c4.5,11.6,6.3,14.7,14.3,15.3c0.3,0.1,0.7,1.8-0.3,1.7C647.5,436.4,643.4,436.1,639.3,436.1
		 M604.5,408.2h18.7l-8.4-23.4L604.5,408.2z"/>
	<path class="st0" d="M701.5,436.6c-3.5,0-8.9-0.6-15.9-0.6c-9.8,0-20.5,0.2-27.6,0.6c-0.8,0.1-0.4-1.7,0-1.8
		c9.7-1,9.8-0.7,9.8-15.2v-28.8c0-14.5-0.4-14.5-8.9-15.4c-0.5-0.1-0.8-1.8,0-1.6c4.1,0.4,8.6,0.5,14.1,0.5c4.3,0,9-0.2,11.9-0.5
		c1-0.1,0.4,1.6,0.2,1.6c-8.9,0.8-8.9,1.5-8.9,15.4v28.7c0,11.7,0.8,13,5.6,13h5.5c14.9,0,15.4-0.8,16.6-6.3l1.7,0.2
		c-0.3,2.7-0.7,6.1-1.3,8.1C703.7,436.4,703,436.6,701.5,436.6"/>
	<path class="st1" d="M280.3,565c-2.5,0-6.3,0-8.1,0.3v-1.1c3.6-0.4,5.2-0.5,5.2-5.4v-14.7c0-4.9-1.6-5.1-5.2-5.4v-1
		c1.8,0.2,5.6,0.2,8.1,0.2c1.7,0,5.6,0,6.8-0.2l0.1,1c-3.8,0.3-5.1,0.9-5.1,5.4v14.7c0,4.5,1.3,5,5.1,5.4l-0.1,1.1
		C285.8,565.1,282,565,280.3,565"/>
	<path class="st1" d="M296.8,574.2c15.4-5.7,19.4-15.3,19.4-24.6c0-7.3-3.7-11-8.1-11c-4.5,0-6.7,3.7-6.7,8.8c0,4.7,2.7,7.8,6.8,7.8
		c1.2,0,2.5-0.3,3-0.6l0.6,0.7c-1.6,1.6-4.1,2.9-6.3,2.9c-6,0-9.2-4.9-9.2-9.5c0-6.1,5.2-11.7,12.4-11.7c8,0,12.6,6,12.6,12.8
		c0,9.4-6.3,20.1-24.2,25.4L296.8,574.2z"/>
	<path class="st1" d="M338.7,565c-2.5,0-6.4,0-8.1,0.3v-1.1c3.6-0.4,5.2-0.5,5.2-5.4v-14.7c0-4.9-1.6-5.1-5.2-5.4v-1
		c1.7,0.2,5.6,0.2,8.1,0.2c1.7,0,5.6,0,6.8-0.2l0.1,1c-3.8,0.3-5.2,0.9-5.2,5.4v14.7c0,4.5,1.4,5,5.2,5.4l-0.1,1.1
		C344.3,565.1,340.4,565,338.7,565"/>
	<path class="st1" d="M355.8,551.9c0-8,6.3-14.9,15.1-14.9c7.8,0,13.9,6.4,13.9,14c0,8-6.4,15-15.3,15
		C361.7,566,355.8,559.5,355.8,551.9 M360.7,550c0,9.6,5.2,14,10.1,14c5.3,0,9-4.1,9-11.2c0-9.5-5.2-14-10.1-14
		C364.4,538.8,360.7,542.9,360.7,550"/>
	<path class="st0" d="M232.6,506.2c-0.6,0.1-0.2-1.1-0.1-1.1c5.2-0.5,5.5-0.5,5.5-9.2v-17.4c0-8.7-0.3-8.7-5.5-9.3
		c-0.1,0-0.6-1,0.1-1c2.5,0.3,5.2,0.3,8.6,0.3c2.5,0,5.3-0.1,7.2-0.3l0.1,1c-5.3,0.4-5.3,0.9-5.3,9.3v17.4c0,8.4,0,8.8,5.3,9.2
		l-0.1,1.1c-1.8-0.3-4.7-0.4-7.2-0.4C237.8,505.8,235.1,505.9,232.6,506.2"/>
	<path class="st0" d="M279.1,506.6l-1-0.1l-11.9-28c-2.9-6.8-3.5-8.9-8.6-9.3l0-1c1.9,0.2,4.3,0.3,6.8,0.3c3.4,0,6.4,0,8.9-0.3
		l0.1,1c-2.7,0.3-4,0.3-4,1.9c0,1.1,0.9,3.6,2.4,7.3l8.4,20.2l8.9-20.2c1.9-4.3,2.5-5.9,2.5-7.3c0-1.3-1.2-1.7-3.8-1.9
		c-0.2,0-0.6-1,0-1c1.8,0.2,3.8,0.3,6.3,0.3c3.4,0,3.4,0,5.8-0.3l0.1,1c-4.1,0.4-4.9,2-8.2,9.3L279.1,506.6z"/>
	<path class="st0" d="M335.5,506.2c-2.2,0-5.8-0.4-9.9-0.4c-6.2,0-12.1,0.1-16.4,0.4l0-1.1c5.8-0.6,5.9-0.5,5.9-9.2v-17.4
		c0-8.8-0.1-8.6-5.9-9.3l0-1c4.3,0.3,10,0.4,15.5,0.4c4.7,0,8.7-0.1,12.1-0.4c-0.3,1.1-0.4,2.1-0.4,3.3c0,0.6,0,2.1,0.1,2.5h-1.1
		c-0.4-2.5-1.7-3.3-9.2-3.3h-5.6c-0.2,1.5-0.3,3.8-0.3,7.5v7.2h6.1c6.3,0,5.9-0.4,6.2-1.9l1.1,0.1c-0.2,0.9-0.3,2.5-0.3,3.9l0.1,2.6
		h-1.1c-0.3-1.8-0.7-2.5-6-2.5h-6.1v8.2c0,7.6,0.9,8.1,3.6,8.1h3.1c8.9,0,9.4-0.8,10.3-4.6l1.1,0.1c-0.2,1.5-0.7,4.4-1.1,5.6
		C336.9,505.9,336.5,506.2,335.5,506.2"/>
	<path class="st0" d="M367,488.8c-1.5,0.2-3.4,0.3-4.6,0.3c-1.2,0-1.4,0-2.3-0.1v6.8c0,8.4,0,8.8,5.4,9.2l-0.2,1.1
		c-1.8-0.3-4.6-0.4-7.2-0.4c-3.4,0-6.1,0.1-8.6,0.4l-0.1-1.1c5.2-0.5,5.5-0.5,5.5-9.2v-17.5c0-6.5-0.1-8.6-3.5-8.6
		c-0.6,0-1.4,0.1-2.2,0.2l-0.1-1c2.4-0.8,8.2-1,14.6-1c8.5,0,15.4,2.6,15.4,9.1c0,3.3-2,8-8.1,10.5c3.2,8.4,12.3,18.4,18.8,18.4
		l-0.1,1.1C376.4,507.1,369.6,498,367,488.8 M360.5,469.8c-0.3,1.2-0.4,3.8-0.4,8.1v9.6c0.9,0.1,1.2,0,2.2,0
		c8.7,0,11.8-3.1,11.8-7.9c0-7.9-5.2-9.9-11-9.9C362.2,469.7,361.6,469.7,360.5,469.8"/>
	<path class="st0" d="M395.8,503.1c-0.3-0.2,0.1-3.6,0.3-7.7l1.1-0.1c0.4,6,3.7,9.9,9.7,9.9c4,0,7.7-2.2,7.7-6.8
		c0-9.6-17.5-9.8-17.5-20.3c0-5.3,4.7-10.7,11.4-10.7c3.4,0,5.6,0.8,7.6,1.8c0.5,0.3,0.9,2.5,0.9,6.3l-1.1,0
		c-0.7-4.3-3.5-6.5-7.8-6.5c-3.7,0-7,2.3-7,5.9c0,9.2,17.1,9.1,17.1,20.1c0,6.4-4.9,11.8-11.9,11.8
		C402.2,507,398.9,505.7,395.8,503.1"/>
	<path class="st0" d="M428.5,506.2c-0.6,0.1-0.3-1.1-0.1-1.1c5.1-0.5,5.5-0.5,5.5-9.2v-17.4c0-8.7-0.4-8.7-5.5-9.3
		c-0.2,0-0.6-1,0.1-1c2.5,0.3,5.1,0.3,8.6,0.3c2.5,0,5.3-0.1,7.2-0.3l0,1c-5.3,0.4-5.3,0.9-5.3,9.3v17.4c0,8.4,0,8.8,5.3,9.2l0,1.1
		c-1.8-0.3-4.7-0.4-7.2-0.4C433.6,505.8,431,505.9,428.5,506.2"/>
	<path class="st0" d="M165.1,492.5c0,7.9-5.4,14.5-15.7,14.5c-8.9,0-16-5.6-16-14.9v-13.5c0-8.7-0.3-8.7-5.4-9.3v-1
		c2.6,0.3,5.2,0.3,8.6,0.3c2.6,0,5.5-0.1,7.3-0.3l0.1,1c-5.4,0.5-5.4,1-5.4,9.3v12.4c0,9.2,6.5,13.2,12.5,13.2
		c6.9,0,11.4-4.6,11.4-12.2V478c0-7.3-0.4-8.1-5.7-8.8l0.1-1c2.5,0.3,4.5,0.3,7.9,0.3c2.5,0,4.2-0.1,6-0.3l0.2,1
		c-5.5,0.5-5.7,1.8-5.7,8.8V492.5z"/>
	<path class="st0" d="M218.1,495.9c0,2.9,0.1,8.2,0.3,10.7l-1.1,0.1l-28.7-30v19.3c0,7.8,0,8.8,5.4,9.2c0.2,0,0.5,1.2-0.1,1.1
		c-1.8-0.3-3.3-0.4-5.7-0.4c-3.4,0-5.2,0-7.6,0.4l-0.1-1.1c5.2-0.5,5.5-1.1,5.5-9.2v-20.4c0-2.7-3.8-6-6.5-6.4l0.1-1
		c2.5,0.2,5.1,0.4,8.5,0.4l27.3,28.7v-18.8c0-8.1-0.2-8.7-5.5-9.3l0.1-1c2.5,0.2,4.2,0.3,7.6,0.3c2.5,0,4.2-0.1,5.9-0.3l0.1,1
		c-5.3,0.5-5.3,1.6-5.3,9.3V495.9z"/>
	<path class="st0" d="M491.8,474.8l-1.1,0.1c-0.5-2.6-1.5-3.9-9.1-3.9h-6.1v25c0,8.4,0,8.8,5.4,9.2l-0.1,1.1
		c-1.8-0.3-4.7-0.4-7.1-0.4c-3.4,0-6.1,0.1-8.6,0.4v-1.1c5.1-0.5,5.4-0.5,5.4-9.2v-25H464c-7.4,0-8.6,1.2-9.3,3.9l-1-0.1
		c0.3-1.2,0.3-3.3,0.3-4.9c0-1-0.1-2.2-0.3-2.9l1.1-0.2c0.5,1.9,0.8,2,9.2,2h17.6c8.5,0,9-0.1,9.5-2l1,0.2c-0.2,1.3-0.4,2.7-0.4,4.7
		C491.6,472.6,491.6,474.1,491.8,474.8"/>
	<path class="st0" d="M523,487.4v8.5c0,8.3,0,8.8,5.5,9.2l-0.1,1.1c-1.8-0.3-4.6-0.4-7.2-0.4c-3.3,0-6.1,0.1-8.6,0.4l-0.1-1.1
		c5.3-0.6,5.5-0.5,5.5-9.2v-8l-5.2-8c-5.7-8.8-7.1-10.2-12.1-10.7v-1c2.4,0.3,5.2,0.3,8.6,0.3c2.5,0,5.4-0.1,7.2-0.3l0.2,1
		c-5.2,0.5-4,2.2,1.6,10.5l3.5,5.2l4.5-6.5c5.7-8.1,6.2-8.5,1.4-9.1v-1c2.4,0.3,4.6,0.3,8.1,0.3c2.4,0,3.4-0.1,5.3-0.3l0,1
		c-5,0.4-6.1,1.7-11.7,9.4L523,487.4z"/>
	<path class="st1" d="M331,152.9V143l69.3-67.8v152.4L331,295.8v-9.5"/>
	<polygon class="st0" points="400.3,324.6 478.8,247.6 478.8,150.7 400.3,227.6 	"/>
	<polyline class="st1" points="471.8,254.4 478.8,247.6 576.3,247.6 497.7,324.6 400.3,324.6 407.3,318 	"/>
	<polygon class="st0" points="331,295.8 261.8,227.6 261.8,75.2 331,143 	"/>
	<polyline class="st1" points="190.2,254.4 183.3,247.6 183.3,150.7 261.8,227.6 261.8,324.6 254.9,318.1 	"/>
	<polygon class="st0" points="164.4,324.6 85.8,247.6 183.3,247.6 261.8,324.6 	"/>
</g>
</svg>
